{"glyphs":{"0":{"ha":960,"x_min":65,"x_max":896,"o":"m 481 -24 q 169 109 272 -24 q 65 463 65 242 q 169 815 65 681 q 481 949 274 949 q 792 814 688 949 q 896 463 896 679 q 792 110 896 243 q 481 -24 688 -24 m 258 756 q 222 708 258 756 q 186 463 186 660 q 258 169 186 265 q 481 72 329 72 q 703 169 632 72 q 775 463 775 267 q 703 756 775 658 q 481 853 632 853 q 258 756 329 853 z "},"1":{"ha":651,"x_min":86,"x_max":613,"o":"m 613 0 l 86 0 l 86 94 l 301 94 l 301 829 l 88 829 l 88 924 l 285 924 q 385 894 354 924 q 415 808 415 865 l 415 94 l 613 94 l 613 0 z "},"2":{"ha":881,"x_min":90,"x_max":808,"o":"m 808 0 l 92 0 l 92 94 l 550 479 q 644 581 618 536 q 669 688 669 626 q 620 808 669 763 q 472 853 571 853 q 210 557 214 853 l 90 557 q 113 708 92 640 q 178 831 135 776 q 295 917 221 886 q 471 949 369 949 q 713 875 635 949 q 790 689 790 801 q 740 528 790 601 q 569 356 689 454 l 257 94 l 808 94 l 808 0 z "},"3":{"ha":872,"x_min":63,"x_max":803,"o":"m 63 300 l 183 300 q 251 137 186 201 q 433 72 317 72 q 619 128 556 72 q 682 294 682 185 q 631 438 682 385 q 485 492 581 492 q 314 439 394 492 l 258 513 l 622 829 l 97 829 l 97 924 l 758 924 l 758 829 l 440 543 q 535 556 488 556 q 724 487 646 556 q 803 292 803 418 q 712 69 803 161 q 431 -24 621 -24 q 160 67 256 -24 q 63 300 65 157 z "},"4":{"ha":867,"x_min":49,"x_max":825,"o":"m 669 924 l 669 328 l 825 328 l 825 235 l 669 235 l 669 0 l 554 0 l 554 235 l 49 235 l 49 328 l 489 924 l 669 924 m 554 851 l 165 328 l 554 328 l 554 851 z "},"5":{"ha":875,"x_min":71,"x_max":808,"o":"m 486 615 q 722 533 635 615 q 808 303 808 450 q 718 66 808 156 q 438 -24 628 -24 q 169 53 260 -24 q 71 261 78 129 l 189 261 q 438 72 203 72 q 626 133 564 72 q 688 301 688 193 q 629 472 688 413 q 464 532 571 532 q 214 411 311 532 l 107 411 l 136 924 l 769 924 l 769 829 l 238 829 l 217 508 q 486 615 314 615 z "},"6":{"ha":861,"x_min":67,"x_max":789,"o":"m 468 581 q 696 504 606 581 q 786 289 786 428 q 693 65 786 153 q 438 -24 600 -24 q 67 449 67 -24 q 168 817 67 686 q 460 949 269 949 q 789 686 757 949 l 675 686 q 457 853 647 853 q 244 753 315 853 q 174 426 174 653 l 174 419 q 290 538 213 494 q 468 581 367 581 m 435 72 q 610 129 551 72 q 668 282 668 186 q 610 438 668 381 q 444 496 553 496 q 267 439 335 496 q 200 283 200 382 q 263 131 200 189 q 435 72 325 72 z "},"7":{"ha":765,"x_min":32,"x_max":725,"o":"m 603 829 l 32 829 l 32 924 l 725 924 l 725 844 q 529 622 606 728 q 400 356 453 515 q 344 0 347 196 l 229 0 q 603 829 236 469 z "},"8":{"ha":861,"x_min":71,"x_max":790,"o":"m 701 55 q 657 16 701 55 q 431 -22 613 -22 q 160 54 249 -22 q 71 246 71 131 q 257 483 71 422 q 138 567 181 511 q 94 699 94 624 q 179 876 94 804 q 431 947 264 947 q 682 876 597 947 q 767 699 767 804 q 723 570 767 626 q 604 485 679 514 q 790 246 790 421 q 701 55 790 132 m 260 571 q 288 547 260 571 q 431 524 315 524 q 601 571 546 524 q 657 692 657 618 q 601 810 657 767 q 431 854 544 854 q 260 810 317 854 q 204 692 204 767 q 260 571 204 618 m 247 119 q 277 95 247 119 q 431 71 307 71 q 615 119 554 71 q 675 251 675 168 q 613 388 675 338 q 431 438 551 438 q 248 388 310 438 q 186 251 186 338 q 247 119 186 168 z "},"9":{"ha":861,"x_min":72,"x_max":794,"o":"m 424 949 q 794 476 794 949 q 693 108 794 239 q 401 -24 592 -24 q 72 239 104 -24 l 186 239 q 404 72 211 72 q 617 172 546 72 q 688 499 688 272 l 688 508 q 572 388 649 432 q 392 344 496 344 q 164 421 254 344 q 74 636 74 497 q 167 860 74 772 q 424 949 260 949 m 415 429 q 593 486 525 429 q 661 642 661 543 q 599 794 661 736 q 425 853 536 853 q 251 796 308 853 q 193 643 193 739 q 250 487 193 544 q 415 429 307 429 z "},"­":{"ha":625,"x_min":117,"x_max":513,"o":"m 117 972 l 513 972 l 513 -278 l 117 -278 l 117 972 m 417 847 l 417 889 l 210 889 l 210 847 l 292 847 l 292 801 l 208 801 l 208 760 l 417 760 l 417 801 l 333 801 l 333 847 l 417 847 m 333 640 l 333 728 l 208 728 l 208 597 l 417 597 l 417 640 l 333 640 m 250 685 l 292 685 l 292 640 l 250 640 l 250 685 m 417 522 l 417 564 l 208 564 l 208 522 l 292 522 l 292 476 l 208 476 l 208 435 l 333 435 l 333 522 l 417 522 m 417 364 l 417 489 l 375 489 l 375 406 l 208 406 l 208 364 l 417 364 m 417 194 l 417 336 l 292 336 l 292 267 l 333 267 l 333 294 l 375 294 l 375 236 l 250 236 l 250 336 l 208 336 l 208 194 l 417 194 m 417 -22 l 417 119 l 208 119 l 208 -22 l 417 -22 m 250 79 l 375 79 l 375 19 l 250 19 l 250 79 m 417 -92 l 417 -50 l 208 -50 l 208 -92 l 296 -92 l 208 -150 l 208 -192 l 417 -192 l 417 -150 l 289 -150 l 376 -92 l 417 -92 z "},"Ĩ":{"ha":625,"x_min":117,"x_max":513,"o":"m 117 972 l 513 972 l 513 -278 l 117 -278 l 117 972 m 417 847 l 417 889 l 210 889 l 210 847 l 292 847 l 292 801 l 208 801 l 208 760 l 417 760 l 417 801 l 333 801 l 333 847 l 417 847 m 333 640 l 333 728 l 208 728 l 208 597 l 417 597 l 417 640 l 333 640 m 250 685 l 292 685 l 292 640 l 250 640 l 250 685 m 417 522 l 417 564 l 208 564 l 208 522 l 292 522 l 292 476 l 208 476 l 208 435 l 333 435 l 333 522 l 417 522 m 417 364 l 417 489 l 375 489 l 375 406 l 208 406 l 208 364 l 417 364 m 417 194 l 417 336 l 292 336 l 292 267 l 333 267 l 333 294 l 375 294 l 375 236 l 250 236 l 250 336 l 208 336 l 208 194 l 417 194 m 417 -22 l 417 119 l 208 119 l 208 -22 l 417 -22 m 250 79 l 375 79 l 375 19 l 250 19 l 250 79 m 417 -92 l 417 -50 l 208 -50 l 208 -92 l 296 -92 l 208 -150 l 208 -192 l 417 -192 l 417 -150 l 289 -150 l 376 -92 l 417 -92 z "},"ĩ":{"ha":625,"x_min":117,"x_max":513,"o":"m 117 972 l 513 972 l 513 -278 l 117 -278 l 117 972 m 417 847 l 417 889 l 210 889 l 210 847 l 292 847 l 292 801 l 208 801 l 208 760 l 417 760 l 417 801 l 333 801 l 333 847 l 417 847 m 333 640 l 333 728 l 208 728 l 208 597 l 417 597 l 417 640 l 333 640 m 250 685 l 292 685 l 292 640 l 250 640 l 250 685 m 417 522 l 417 564 l 208 564 l 208 522 l 292 522 l 292 476 l 208 476 l 208 435 l 333 435 l 333 522 l 417 522 m 417 364 l 417 489 l 375 489 l 375 406 l 208 406 l 208 364 l 417 364 m 417 194 l 417 336 l 292 336 l 292 267 l 333 267 l 333 294 l 375 294 l 375 236 l 250 236 l 250 336 l 208 336 l 208 194 l 417 194 m 417 -22 l 417 119 l 208 119 l 208 -22 l 417 -22 m 250 79 l 375 79 l 375 19 l 250 19 l 250 79 m 417 -92 l 417 -50 l 208 -50 l 208 -92 l 296 -92 l 208 -150 l 208 -192 l 417 -192 l 417 -150 l 289 -150 l 376 -92 l 417 -92 z "},"Ĭ":{"ha":625,"x_min":117,"x_max":513,"o":"m 117 972 l 513 972 l 513 -278 l 117 -278 l 117 972 m 417 847 l 417 889 l 210 889 l 210 847 l 292 847 l 292 801 l 208 801 l 208 760 l 417 760 l 417 801 l 333 801 l 333 847 l 417 847 m 333 640 l 333 728 l 208 728 l 208 597 l 417 597 l 417 640 l 333 640 m 250 685 l 292 685 l 292 640 l 250 640 l 250 685 m 417 522 l 417 564 l 208 564 l 208 522 l 292 522 l 292 476 l 208 476 l 208 435 l 333 435 l 333 522 l 417 522 m 417 364 l 417 489 l 375 489 l 375 406 l 208 406 l 208 364 l 417 364 m 417 194 l 417 336 l 292 336 l 292 267 l 333 267 l 333 294 l 375 294 l 375 236 l 250 236 l 250 336 l 208 336 l 208 194 l 417 194 m 417 -22 l 417 119 l 208 119 l 208 -22 l 417 -22 m 250 79 l 375 79 l 375 19 l 250 19 l 250 79 m 417 -92 l 417 -50 l 208 -50 l 208 -92 l 296 -92 l 208 -150 l 208 -192 l 417 -192 l 417 -150 l 289 -150 l 376 -92 l 417 -92 z "},"ĭ":{"ha":625,"x_min":117,"x_max":513,"o":"m 117 972 l 513 972 l 513 -278 l 117 -278 l 117 972 m 417 847 l 417 889 l 210 889 l 210 847 l 292 847 l 292 801 l 208 801 l 208 760 l 417 760 l 417 801 l 333 801 l 333 847 l 417 847 m 333 640 l 333 728 l 208 728 l 208 597 l 417 597 l 417 640 l 333 640 m 250 685 l 292 685 l 292 640 l 250 640 l 250 685 m 417 522 l 417 564 l 208 564 l 208 522 l 292 522 l 292 476 l 208 476 l 208 435 l 333 435 l 333 522 l 417 522 m 417 364 l 417 489 l 375 489 l 375 406 l 208 406 l 208 364 l 417 364 m 417 194 l 417 336 l 292 336 l 292 267 l 333 267 l 333 294 l 375 294 l 375 236 l 250 236 l 250 336 l 208 336 l 208 194 l 417 194 m 417 -22 l 417 119 l 208 119 l 208 -22 l 417 -22 m 250 79 l 375 79 l 375 19 l 250 19 l 250 79 m 417 -92 l 417 -50 l 208 -50 l 208 -92 l 296 -92 l 208 -150 l 208 -192 l 417 -192 l 417 -150 l 289 -150 l 376 -92 l 417 -92 z "},"̉":{"ha":625,"x_min":117,"x_max":513,"o":"m 117 972 l 513 972 l 513 -278 l 117 -278 l 117 972 m 417 847 l 417 889 l 210 889 l 210 847 l 292 847 l 292 801 l 208 801 l 208 760 l 417 760 l 417 801 l 333 801 l 333 847 l 417 847 m 333 640 l 333 728 l 208 728 l 208 597 l 417 597 l 417 640 l 333 640 m 250 685 l 292 685 l 292 640 l 250 640 l 250 685 m 417 522 l 417 564 l 208 564 l 208 522 l 292 522 l 292 476 l 208 476 l 208 435 l 333 435 l 333 522 l 417 522 m 417 364 l 417 489 l 375 489 l 375 406 l 208 406 l 208 364 l 417 364 m 417 194 l 417 336 l 292 336 l 292 267 l 333 267 l 333 294 l 375 294 l 375 236 l 250 236 l 250 336 l 208 336 l 208 194 l 417 194 m 417 -22 l 417 119 l 208 119 l 208 -22 l 417 -22 m 250 79 l 375 79 l 375 19 l 250 19 l 250 79 m 417 -92 l 417 -50 l 208 -50 l 208 -92 l 296 -92 l 208 -150 l 208 -192 l 417 -192 l 417 -150 l 289 -150 l 376 -92 l 417 -92 z "},"―":{"ha":625,"x_min":117,"x_max":513,"o":"m 117 972 l 513 972 l 513 -278 l 117 -278 l 117 972 m 417 847 l 417 889 l 210 889 l 210 847 l 292 847 l 292 801 l 208 801 l 208 760 l 417 760 l 417 801 l 333 801 l 333 847 l 417 847 m 333 640 l 333 728 l 208 728 l 208 597 l 417 597 l 417 640 l 333 640 m 250 685 l 292 685 l 292 640 l 250 640 l 250 685 m 417 522 l 417 564 l 208 564 l 208 522 l 292 522 l 292 476 l 208 476 l 208 435 l 333 435 l 333 522 l 417 522 m 417 364 l 417 489 l 375 489 l 375 406 l 208 406 l 208 364 l 417 364 m 417 194 l 417 336 l 292 336 l 292 267 l 333 267 l 333 294 l 375 294 l 375 236 l 250 236 l 250 336 l 208 336 l 208 194 l 417 194 m 417 -22 l 417 119 l 208 119 l 208 -22 l 417 -22 m 250 79 l 375 79 l 375 19 l 250 19 l 250 79 m 417 -92 l 417 -50 l 208 -50 l 208 -92 l 296 -92 l 208 -150 l 208 -192 l 417 -192 l 417 -150 l 289 -150 l 376 -92 l 417 -92 z "},"‖":{"ha":625,"x_min":117,"x_max":513,"o":"m 117 972 l 513 972 l 513 -278 l 117 -278 l 117 972 m 417 847 l 417 889 l 210 889 l 210 847 l 292 847 l 292 801 l 208 801 l 208 760 l 417 760 l 417 801 l 333 801 l 333 847 l 417 847 m 333 640 l 333 728 l 208 728 l 208 597 l 417 597 l 417 640 l 333 640 m 250 685 l 292 685 l 292 640 l 250 640 l 250 685 m 417 522 l 417 564 l 208 564 l 208 522 l 292 522 l 292 476 l 208 476 l 208 435 l 333 435 l 333 522 l 417 522 m 417 364 l 417 489 l 375 489 l 375 406 l 208 406 l 208 364 l 417 364 m 417 194 l 417 336 l 292 336 l 292 267 l 333 267 l 333 294 l 375 294 l 375 236 l 250 236 l 250 336 l 208 336 l 208 194 l 417 194 m 417 -22 l 417 119 l 208 119 l 208 -22 l 417 -22 m 250 79 l 375 79 l 375 19 l 250 19 l 250 79 m 417 -92 l 417 -50 l 208 -50 l 208 -92 l 296 -92 l 208 -150 l 208 -192 l 417 -192 l 417 -150 l 289 -150 l 376 -92 l 417 -92 z "},"‗":{"ha":625,"x_min":117,"x_max":513,"o":"m 117 972 l 513 972 l 513 -278 l 117 -278 l 117 972 m 417 847 l 417 889 l 210 889 l 210 847 l 292 847 l 292 801 l 208 801 l 208 760 l 417 760 l 417 801 l 333 801 l 333 847 l 417 847 m 333 640 l 333 728 l 208 728 l 208 597 l 417 597 l 417 640 l 333 640 m 250 685 l 292 685 l 292 640 l 250 640 l 250 685 m 417 522 l 417 564 l 208 564 l 208 522 l 292 522 l 292 476 l 208 476 l 208 435 l 333 435 l 333 522 l 417 522 m 417 364 l 417 489 l 375 489 l 375 406 l 208 406 l 208 364 l 417 364 m 417 194 l 417 336 l 292 336 l 292 267 l 333 267 l 333 294 l 375 294 l 375 236 l 250 236 l 250 336 l 208 336 l 208 194 l 417 194 m 417 -22 l 417 119 l 208 119 l 208 -22 l 417 -22 m 250 79 l 375 79 l 375 19 l 250 19 l 250 79 m 417 -92 l 417 -50 l 208 -50 l 208 -92 l 296 -92 l 208 -150 l 208 -192 l 417 -192 l 417 -150 l 289 -150 l 376 -92 l 417 -92 z "},"‛":{"ha":625,"x_min":117,"x_max":513,"o":"m 117 972 l 513 972 l 513 -278 l 117 -278 l 117 972 m 417 847 l 417 889 l 210 889 l 210 847 l 292 847 l 292 801 l 208 801 l 208 760 l 417 760 l 417 801 l 333 801 l 333 847 l 417 847 m 333 640 l 333 728 l 208 728 l 208 597 l 417 597 l 417 640 l 333 640 m 250 685 l 292 685 l 292 640 l 250 640 l 250 685 m 417 522 l 417 564 l 208 564 l 208 522 l 292 522 l 292 476 l 208 476 l 208 435 l 333 435 l 333 522 l 417 522 m 417 364 l 417 489 l 375 489 l 375 406 l 208 406 l 208 364 l 417 364 m 417 194 l 417 336 l 292 336 l 292 267 l 333 267 l 333 294 l 375 294 l 375 236 l 250 236 l 250 336 l 208 336 l 208 194 l 417 194 m 417 -22 l 417 119 l 208 119 l 208 -22 l 417 -22 m 250 79 l 375 79 l 375 19 l 250 19 l 250 79 m 417 -92 l 417 -50 l 208 -50 l 208 -92 l 296 -92 l 208 -150 l 208 -192 l 417 -192 l 417 -150 l 289 -150 l 376 -92 l 417 -92 z "},"‟":{"ha":625,"x_min":117,"x_max":513,"o":"m 117 972 l 513 972 l 513 -278 l 117 -278 l 117 972 m 417 847 l 417 889 l 210 889 l 210 847 l 292 847 l 292 801 l 208 801 l 208 760 l 417 760 l 417 801 l 333 801 l 333 847 l 417 847 m 333 640 l 333 728 l 208 728 l 208 597 l 417 597 l 417 640 l 333 640 m 250 685 l 292 685 l 292 640 l 250 640 l 250 685 m 417 522 l 417 564 l 208 564 l 208 522 l 292 522 l 292 476 l 208 476 l 208 435 l 333 435 l 333 522 l 417 522 m 417 364 l 417 489 l 375 489 l 375 406 l 208 406 l 208 364 l 417 364 m 417 194 l 417 336 l 292 336 l 292 267 l 333 267 l 333 294 l 375 294 l 375 236 l 250 236 l 250 336 l 208 336 l 208 194 l 417 194 m 417 -22 l 417 119 l 208 119 l 208 -22 l 417 -22 m 250 79 l 375 79 l 375 19 l 250 19 l 250 79 m 417 -92 l 417 -50 l 208 -50 l 208 -92 l 296 -92 l 208 -150 l 208 -192 l 417 -192 l 417 -150 l 289 -150 l 376 -92 l 417 -92 z "},"‣":{"ha":625,"x_min":117,"x_max":513,"o":"m 117 972 l 513 972 l 513 -278 l 117 -278 l 117 972 m 417 847 l 417 889 l 210 889 l 210 847 l 292 847 l 292 801 l 208 801 l 208 760 l 417 760 l 417 801 l 333 801 l 333 847 l 417 847 m 333 640 l 333 728 l 208 728 l 208 597 l 417 597 l 417 640 l 333 640 m 250 685 l 292 685 l 292 640 l 250 640 l 250 685 m 417 522 l 417 564 l 208 564 l 208 522 l 292 522 l 292 476 l 208 476 l 208 435 l 333 435 l 333 522 l 417 522 m 417 364 l 417 489 l 375 489 l 375 406 l 208 406 l 208 364 l 417 364 m 417 194 l 417 336 l 292 336 l 292 267 l 333 267 l 333 294 l 375 294 l 375 236 l 250 236 l 250 336 l 208 336 l 208 194 l 417 194 m 417 -22 l 417 119 l 208 119 l 208 -22 l 417 -22 m 250 79 l 375 79 l 375 19 l 250 19 l 250 79 m 417 -92 l 417 -50 l 208 -50 l 208 -92 l 296 -92 l 208 -150 l 208 -192 l 417 -192 l 417 -150 l 289 -150 l 376 -92 l 417 -92 z "},"․":{"ha":625,"x_min":117,"x_max":513,"o":"m 117 972 l 513 972 l 513 -278 l 117 -278 l 117 972 m 417 847 l 417 889 l 210 889 l 210 847 l 292 847 l 292 801 l 208 801 l 208 760 l 417 760 l 417 801 l 333 801 l 333 847 l 417 847 m 333 640 l 333 728 l 208 728 l 208 597 l 417 597 l 417 640 l 333 640 m 250 685 l 292 685 l 292 640 l 250 640 l 250 685 m 417 522 l 417 564 l 208 564 l 208 522 l 292 522 l 292 476 l 208 476 l 208 435 l 333 435 l 333 522 l 417 522 m 417 364 l 417 489 l 375 489 l 375 406 l 208 406 l 208 364 l 417 364 m 417 194 l 417 336 l 292 336 l 292 267 l 333 267 l 333 294 l 375 294 l 375 236 l 250 236 l 250 336 l 208 336 l 208 194 l 417 194 m 417 -22 l 417 119 l 208 119 l 208 -22 l 417 -22 m 250 79 l 375 79 l 375 19 l 250 19 l 250 79 m 417 -92 l 417 -50 l 208 -50 l 208 -92 l 296 -92 l 208 -150 l 208 -192 l 417 -192 l 417 -150 l 289 -150 l 376 -92 l 417 -92 z "},"‥":{"ha":625,"x_min":117,"x_max":513,"o":"m 117 972 l 513 972 l 513 -278 l 117 -278 l 117 972 m 417 847 l 417 889 l 210 889 l 210 847 l 292 847 l 292 801 l 208 801 l 208 760 l 417 760 l 417 801 l 333 801 l 333 847 l 417 847 m 333 640 l 333 728 l 208 728 l 208 597 l 417 597 l 417 640 l 333 640 m 250 685 l 292 685 l 292 640 l 250 640 l 250 685 m 417 522 l 417 564 l 208 564 l 208 522 l 292 522 l 292 476 l 208 476 l 208 435 l 333 435 l 333 522 l 417 522 m 417 364 l 417 489 l 375 489 l 375 406 l 208 406 l 208 364 l 417 364 m 417 194 l 417 336 l 292 336 l 292 267 l 333 267 l 333 294 l 375 294 l 375 236 l 250 236 l 250 336 l 208 336 l 208 194 l 417 194 m 417 -22 l 417 119 l 208 119 l 208 -22 l 417 -22 m 250 79 l 375 79 l 375 19 l 250 19 l 250 79 m 417 -92 l 417 -50 l 208 -50 l 208 -92 l 296 -92 l 208 -150 l 208 -192 l 417 -192 l 417 -150 l 289 -150 l 376 -92 l 417 -92 z "},"↔":{"ha":625,"x_min":117,"x_max":513,"o":"m 117 972 l 513 972 l 513 -278 l 117 -278 l 117 972 m 417 847 l 417 889 l 210 889 l 210 847 l 292 847 l 292 801 l 208 801 l 208 760 l 417 760 l 417 801 l 333 801 l 333 847 l 417 847 m 333 640 l 333 728 l 208 728 l 208 597 l 417 597 l 417 640 l 333 640 m 250 685 l 292 685 l 292 640 l 250 640 l 250 685 m 417 522 l 417 564 l 208 564 l 208 522 l 292 522 l 292 476 l 208 476 l 208 435 l 333 435 l 333 522 l 417 522 m 417 364 l 417 489 l 375 489 l 375 406 l 208 406 l 208 364 l 417 364 m 417 194 l 417 336 l 292 336 l 292 267 l 333 267 l 333 294 l 375 294 l 375 236 l 250 236 l 250 336 l 208 336 l 208 194 l 417 194 m 417 -22 l 417 119 l 208 119 l 208 -22 l 417 -22 m 250 79 l 375 79 l 375 19 l 250 19 l 250 79 m 417 -92 l 417 -50 l 208 -50 l 208 -92 l 296 -92 l 208 -150 l 208 -192 l 417 -192 l 417 -150 l 289 -150 l 376 -92 l 417 -92 z "},"↕":{"ha":625,"x_min":117,"x_max":513,"o":"m 117 972 l 513 972 l 513 -278 l 117 -278 l 117 972 m 417 847 l 417 889 l 210 889 l 210 847 l 292 847 l 292 801 l 208 801 l 208 760 l 417 760 l 417 801 l 333 801 l 333 847 l 417 847 m 333 640 l 333 728 l 208 728 l 208 597 l 417 597 l 417 640 l 333 640 m 250 685 l 292 685 l 292 640 l 250 640 l 250 685 m 417 522 l 417 564 l 208 564 l 208 522 l 292 522 l 292 476 l 208 476 l 208 435 l 333 435 l 333 522 l 417 522 m 417 364 l 417 489 l 375 489 l 375 406 l 208 406 l 208 364 l 417 364 m 417 194 l 417 336 l 292 336 l 292 267 l 333 267 l 333 294 l 375 294 l 375 236 l 250 236 l 250 336 l 208 336 l 208 194 l 417 194 m 417 -22 l 417 119 l 208 119 l 208 -22 l 417 -22 m 250 79 l 375 79 l 375 19 l 250 19 l 250 79 m 417 -92 l 417 -50 l 208 -50 l 208 -92 l 296 -92 l 208 -150 l 208 -192 l 417 -192 l 417 -150 l 289 -150 l 376 -92 l 417 -92 z "},"∐":{"ha":625,"x_min":117,"x_max":513,"o":"m 117 972 l 513 972 l 513 -278 l 117 -278 l 117 972 m 417 847 l 417 889 l 210 889 l 210 847 l 292 847 l 292 801 l 208 801 l 208 760 l 417 760 l 417 801 l 333 801 l 333 847 l 417 847 m 333 640 l 333 728 l 208 728 l 208 597 l 417 597 l 417 640 l 333 640 m 250 685 l 292 685 l 292 640 l 250 640 l 250 685 m 417 522 l 417 564 l 208 564 l 208 522 l 292 522 l 292 476 l 208 476 l 208 435 l 333 435 l 333 522 l 417 522 m 417 364 l 417 489 l 375 489 l 375 406 l 208 406 l 208 364 l 417 364 m 417 194 l 417 336 l 292 336 l 292 267 l 333 267 l 333 294 l 375 294 l 375 236 l 250 236 l 250 336 l 208 336 l 208 194 l 417 194 m 417 -22 l 417 119 l 208 119 l 208 -22 l 417 -22 m 250 79 l 375 79 l 375 19 l 250 19 l 250 79 m 417 -92 l 417 -50 l 208 -50 l 208 -92 l 296 -92 l 208 -150 l 208 -192 l 417 -192 l 417 -150 l 289 -150 l 376 -92 l 417 -92 z "},"∛":{"ha":625,"x_min":117,"x_max":513,"o":"m 117 972 l 513 972 l 513 -278 l 117 -278 l 117 972 m 417 847 l 417 889 l 210 889 l 210 847 l 292 847 l 292 801 l 208 801 l 208 760 l 417 760 l 417 801 l 333 801 l 333 847 l 417 847 m 333 640 l 333 728 l 208 728 l 208 597 l 417 597 l 417 640 l 333 640 m 250 685 l 292 685 l 292 640 l 250 640 l 250 685 m 417 522 l 417 564 l 208 564 l 208 522 l 292 522 l 292 476 l 208 476 l 208 435 l 333 435 l 333 522 l 417 522 m 417 364 l 417 489 l 375 489 l 375 406 l 208 406 l 208 364 l 417 364 m 417 194 l 417 336 l 292 336 l 292 267 l 333 267 l 333 294 l 375 294 l 375 236 l 250 236 l 250 336 l 208 336 l 208 194 l 417 194 m 417 -22 l 417 119 l 208 119 l 208 -22 l 417 -22 m 250 79 l 375 79 l 375 19 l 250 19 l 250 79 m 417 -92 l 417 -50 l 208 -50 l 208 -92 l 296 -92 l 208 -150 l 208 -192 l 417 -192 l 417 -150 l 289 -150 l 376 -92 l 417 -92 z "},"∜":{"ha":625,"x_min":117,"x_max":513,"o":"m 117 972 l 513 972 l 513 -278 l 117 -278 l 117 972 m 417 847 l 417 889 l 210 889 l 210 847 l 292 847 l 292 801 l 208 801 l 208 760 l 417 760 l 417 801 l 333 801 l 333 847 l 417 847 m 333 640 l 333 728 l 208 728 l 208 597 l 417 597 l 417 640 l 333 640 m 250 685 l 292 685 l 292 640 l 250 640 l 250 685 m 417 522 l 417 564 l 208 564 l 208 522 l 292 522 l 292 476 l 208 476 l 208 435 l 333 435 l 333 522 l 417 522 m 417 364 l 417 489 l 375 489 l 375 406 l 208 406 l 208 364 l 417 364 m 417 194 l 417 336 l 292 336 l 292 267 l 333 267 l 333 294 l 375 294 l 375 236 l 250 236 l 250 336 l 208 336 l 208 194 l 417 194 m 417 -22 l 417 119 l 208 119 l 208 -22 l 417 -22 m 250 79 l 375 79 l 375 19 l 250 19 l 250 79 m 417 -92 l 417 -50 l 208 -50 l 208 -92 l 296 -92 l 208 -150 l 208 -192 l 417 -192 l 417 -150 l 289 -150 l 376 -92 l 417 -92 z "},"∝":{"ha":625,"x_min":117,"x_max":513,"o":"m 117 972 l 513 972 l 513 -278 l 117 -278 l 117 972 m 417 847 l 417 889 l 210 889 l 210 847 l 292 847 l 292 801 l 208 801 l 208 760 l 417 760 l 417 801 l 333 801 l 333 847 l 417 847 m 333 640 l 333 728 l 208 728 l 208 597 l 417 597 l 417 640 l 333 640 m 250 685 l 292 685 l 292 640 l 250 640 l 250 685 m 417 522 l 417 564 l 208 564 l 208 522 l 292 522 l 292 476 l 208 476 l 208 435 l 333 435 l 333 522 l 417 522 m 417 364 l 417 489 l 375 489 l 375 406 l 208 406 l 208 364 l 417 364 m 417 194 l 417 336 l 292 336 l 292 267 l 333 267 l 333 294 l 375 294 l 375 236 l 250 236 l 250 336 l 208 336 l 208 194 l 417 194 m 417 -22 l 417 119 l 208 119 l 208 -22 l 417 -22 m 250 79 l 375 79 l 375 19 l 250 19 l 250 79 m 417 -92 l 417 -50 l 208 -50 l 208 -92 l 296 -92 l 208 -150 l 208 -192 l 417 -192 l 417 -150 l 289 -150 l 376 -92 l 417 -92 z "},"≡":{"ha":625,"x_min":117,"x_max":513,"o":"m 117 972 l 513 972 l 513 -278 l 117 -278 l 117 972 m 417 847 l 417 889 l 210 889 l 210 847 l 292 847 l 292 801 l 208 801 l 208 760 l 417 760 l 417 801 l 333 801 l 333 847 l 417 847 m 333 640 l 333 728 l 208 728 l 208 597 l 417 597 l 417 640 l 333 640 m 250 685 l 292 685 l 292 640 l 250 640 l 250 685 m 417 522 l 417 564 l 208 564 l 208 522 l 292 522 l 292 476 l 208 476 l 208 435 l 333 435 l 333 522 l 417 522 m 417 364 l 417 489 l 375 489 l 375 406 l 208 406 l 208 364 l 417 364 m 417 194 l 417 336 l 292 336 l 292 267 l 333 267 l 333 294 l 375 294 l 375 236 l 250 236 l 250 336 l 208 336 l 208 194 l 417 194 m 417 -22 l 417 119 l 208 119 l 208 -22 l 417 -22 m 250 79 l 375 79 l 375 19 l 250 19 l 250 79 m 417 -92 l 417 -50 l 208 -50 l 208 -92 l 296 -92 l 208 -150 l 208 -192 l 417 -192 l 417 -150 l 289 -150 l 376 -92 l 417 -92 z "},"≢":{"ha":625,"x_min":117,"x_max":513,"o":"m 117 972 l 513 972 l 513 -278 l 117 -278 l 117 972 m 417 847 l 417 889 l 210 889 l 210 847 l 292 847 l 292 801 l 208 801 l 208 760 l 417 760 l 417 801 l 333 801 l 333 847 l 417 847 m 333 640 l 333 728 l 208 728 l 208 597 l 417 597 l 417 640 l 333 640 m 250 685 l 292 685 l 292 640 l 250 640 l 250 685 m 417 522 l 417 564 l 208 564 l 208 522 l 292 522 l 292 476 l 208 476 l 208 435 l 333 435 l 333 522 l 417 522 m 417 364 l 417 489 l 375 489 l 375 406 l 208 406 l 208 364 l 417 364 m 417 194 l 417 336 l 292 336 l 292 267 l 333 267 l 333 294 l 375 294 l 375 236 l 250 236 l 250 336 l 208 336 l 208 194 l 417 194 m 417 -22 l 417 119 l 208 119 l 208 -22 l 417 -22 m 250 79 l 375 79 l 375 19 l 250 19 l 250 79 m 417 -92 l 417 -50 l 208 -50 l 208 -92 l 296 -92 l 208 -150 l 208 -192 l 417 -192 l 417 -150 l 289 -150 l 376 -92 l 417 -92 z "},"≣":{"ha":625,"x_min":117,"x_max":513,"o":"m 117 972 l 513 972 l 513 -278 l 117 -278 l 117 972 m 417 847 l 417 889 l 210 889 l 210 847 l 292 847 l 292 801 l 208 801 l 208 760 l 417 760 l 417 801 l 333 801 l 333 847 l 417 847 m 333 640 l 333 728 l 208 728 l 208 597 l 417 597 l 417 640 l 333 640 m 250 685 l 292 685 l 292 640 l 250 640 l 250 685 m 417 522 l 417 564 l 208 564 l 208 522 l 292 522 l 292 476 l 208 476 l 208 435 l 333 435 l 333 522 l 417 522 m 417 364 l 417 489 l 375 489 l 375 406 l 208 406 l 208 364 l 417 364 m 417 194 l 417 336 l 292 336 l 292 267 l 333 267 l 333 294 l 375 294 l 375 236 l 250 236 l 250 336 l 208 336 l 208 194 l 417 194 m 417 -22 l 417 119 l 208 119 l 208 -22 l 417 -22 m 250 79 l 375 79 l 375 19 l 250 19 l 250 79 m 417 -92 l 417 -50 l 208 -50 l 208 -92 l 296 -92 l 208 -150 l 208 -192 l 417 -192 l 417 -150 l 289 -150 l 376 -92 l 417 -92 z "}," ":{"ha":313,"x_min":0,"x_max":0,"o":""},"!":{"ha":294,"x_min":75,"x_max":219,"o":"m 185 271 l 110 271 l 92 924 l 203 924 l 185 271 m 219 0 l 75 0 l 75 122 l 219 122 l 219 0 z "},"\"":{"ha":364,"x_min":29,"x_max":335,"o":"m 43 635 l 29 924 l 147 924 l 133 635 l 43 635 m 229 635 l 215 924 l 335 924 l 321 635 l 229 635 z "},"#":{"ha":1193,"x_min":69,"x_max":1124,"o":"m 1124 694 l 1124 610 l 878 610 l 788 344 l 1025 344 l 1025 260 l 758 260 l 669 0 l 571 0 l 660 260 l 368 260 l 279 0 l 179 0 l 268 260 l 69 260 l 69 344 l 297 344 l 388 610 l 169 610 l 169 694 l 417 694 l 494 924 l 594 924 l 517 694 l 808 694 l 886 924 l 985 924 l 907 694 l 1124 694 m 397 344 l 689 344 l 779 610 l 488 610 l 397 344 z "},"$":{"ha":717,"x_min":53,"x_max":657,"o":"m 657 301 q 413 94 657 111 l 413 -49 l 301 -49 l 301 96 q 115 176 175 110 q 53 347 56 242 l 156 347 q 210 223 163 268 q 367 178 258 178 q 506 207 464 178 q 547 296 547 236 q 517 376 547 349 q 421 414 488 404 l 260 438 q 71 625 71 464 q 132 765 71 710 q 301 831 193 819 l 301 972 l 413 972 l 413 831 q 578 759 519 817 q 643 611 638 701 l 533 611 q 353 749 519 749 q 223 717 267 749 q 179 633 179 686 q 292 531 179 547 l 449 508 q 608 441 558 492 q 657 301 657 390 z "},"%":{"ha":1126,"x_min":69,"x_max":1057,"o":"m 185 0 l 69 0 l 69 17 l 929 840 l 506 840 l 506 554 l 121 554 l 121 924 l 989 924 q 1057 868 1057 924 q 1017 794 1057 833 l 185 0 m 211 840 l 211 638 l 418 638 l 418 840 l 211 840 m 1044 0 l 660 0 l 660 368 l 1044 368 l 1044 0 m 750 288 l 750 83 l 956 83 l 956 288 l 750 288 z "},"&":{"ha":1056,"x_min":88,"x_max":1001,"o":"m 1001 504 l 1001 413 l 840 413 q 785 176 832 268 l 953 31 l 893 -35 l 736 101 q 418 -24 633 -24 q 181 42 274 -24 q 88 228 88 107 q 138 383 88 321 q 292 493 189 444 q 186 714 186 606 q 260 884 186 821 q 465 947 333 947 q 660 890 590 947 q 731 738 731 832 q 680 601 731 656 q 529 503 629 547 l 449 468 q 460 458 453 464 q 471 449 468 453 l 713 239 q 747 407 743 310 q 842 504 751 504 l 1001 504 m 465 865 q 299 715 299 865 q 379 532 299 619 l 482 578 q 585 642 551 608 q 619 729 619 675 q 465 865 619 865 m 426 63 q 667 163 582 63 l 403 390 q 360 428 388 403 q 200 235 200 358 q 258 108 200 154 q 426 63 317 63 z "},"'":{"ha":176,"x_min":29,"x_max":147,"o":"m 43 635 l 29 924 l 147 924 l 133 635 l 43 635 z "},"(":{"ha":460,"x_min":56,"x_max":418,"o":"m 84 155 q 70 210 84 155 q 56 393 56 265 q 84 631 56 521 q 161 823 113 742 q 263 962 210 904 q 381 1064 317 1019 l 418 1018 q 174 393 174 796 q 418 -232 174 -10 l 381 -278 q 263 -176 317 -233 q 161 -37 210 -118 q 84 155 113 44 z "},")":{"ha":460,"x_min":42,"x_max":404,"o":"m 376 631 q 390 576 376 631 q 404 393 404 521 q 376 155 404 265 q 299 -37 347 44 q 197 -176 250 -118 q 79 -278 143 -233 l 42 -232 q 286 393 286 -10 q 42 1018 286 796 l 79 1064 q 197 962 143 1019 q 299 823 250 904 q 376 631 347 742 z "},"*":{"ha":513,"x_min":40,"x_max":472,"o":"m 232 699 l 40 776 l 82 846 l 244 719 l 217 924 l 296 924 l 268 719 l 431 846 l 471 776 l 281 699 l 472 621 l 431 550 l 268 678 l 296 474 l 217 474 l 244 678 l 82 550 l 42 621 l 232 699 z "},"+":{"ha":750,"x_min":97,"x_max":653,"o":"m 421 389 l 653 389 l 653 304 l 421 304 l 421 69 l 329 69 l 329 304 l 97 304 l 97 389 l 329 389 l 329 626 l 421 626 l 421 389 z "},",":{"ha":201,"x_min":29,"x_max":172,"o":"m 100 6 l 29 6 l 29 122 l 172 122 l 172 -81 q 145 -161 172 -137 q 58 -185 118 -185 l 29 -185 l 29 -112 l 100 -112 l 100 6 z "},"-":{"ha":649,"x_min":46,"x_max":601,"o":"m 46 304 l 46 389 l 601 389 l 601 304 l 46 304 z "},".":{"ha":201,"x_min":29,"x_max":174,"o":"m 174 0 l 29 0 l 29 122 l 174 122 l 174 0 z "},"/":{"ha":444,"x_min":17,"x_max":431,"o":"m 115 0 l 17 0 l 332 924 l 431 924 l 115 0 z "},":":{"ha":201,"x_min":29,"x_max":174,"o":"m 174 572 l 29 572 l 29 694 l 174 694 l 174 572 m 174 0 l 29 0 l 29 122 l 174 122 l 174 0 z "},";":{"ha":201,"x_min":29,"x_max":174,"o":"m 174 572 l 29 572 l 29 694 l 174 694 l 174 572 m 100 6 l 29 6 l 29 122 l 172 122 l 172 -81 q 145 -161 172 -137 q 58 -185 118 -185 l 29 -185 l 29 -112 l 100 -112 l 100 6 z "},"<":{"ha":668,"x_min":93,"x_max":557,"o":"m 93 410 l 557 590 l 557 500 l 164 347 l 557 194 l 557 104 l 93 285 l 93 410 z "},"=":{"ha":615,"x_min":90,"x_max":525,"o":"m 90 415 l 90 500 l 525 500 l 525 415 l 90 415 m 90 193 l 90 278 l 525 278 l 525 193 l 90 193 z "},">":{"ha":650,"x_min":93,"x_max":557,"o":"m 93 500 l 93 590 l 557 410 l 557 285 l 93 104 l 93 194 l 486 347 l 93 500 z "},"?":{"ha":871,"x_min":90,"x_max":799,"o":"m 439 350 l 357 350 l 357 444 l 431 444 q 678 651 678 444 q 623 796 678 739 q 465 853 568 853 q 208 608 222 853 l 90 608 q 114 734 93 676 q 176 842 135 792 q 292 920 218 892 q 465 949 365 949 q 715 866 631 949 q 799 660 799 783 q 702 433 799 517 q 439 350 606 350 m 517 0 l 372 0 l 372 122 l 517 122 l 517 0 z "},"@":{"ha":1439,"x_min":79,"x_max":1363,"o":"m 1011 -260 l 767 -260 q 261 -98 443 -260 q 79 344 79 64 q 250 796 79 625 q 724 967 421 967 q 1196 823 1029 967 q 1363 411 1363 679 q 1274 128 1363 221 q 1050 36 1186 36 l 908 36 l 904 158 q 674 21 851 21 q 460 111 531 21 q 390 356 390 201 q 460 599 390 508 q 674 689 531 689 q 904 561 838 689 l 904 667 l 1015 667 l 1015 126 l 1067 126 q 1203 198 1153 126 q 1253 421 1253 269 q 1119 759 1253 636 q 724 882 985 882 q 325 733 461 882 q 189 344 189 585 q 340 -33 189 104 q 765 -169 490 -169 l 1011 -169 l 1011 -260 m 703 111 q 911 356 911 111 q 859 540 911 482 q 703 599 807 599 q 554 540 599 599 q 510 356 510 482 q 554 169 510 228 q 703 111 599 111 z "},"A":{"ha":971,"x_min":51,"x_max":922,"o":"m 922 0 l 806 0 l 715 236 l 257 236 l 167 0 l 51 0 l 401 924 l 572 924 l 922 0 m 486 840 l 292 329 l 681 329 l 486 840 z "},"B":{"ha":903,"x_min":94,"x_max":829,"o":"m 640 478 q 776 410 722 468 q 829 249 829 351 q 758 66 829 132 q 546 0 686 0 l 94 0 l 94 924 l 549 924 q 751 861 688 924 q 814 694 814 799 q 765 546 814 600 q 640 478 717 492 m 525 831 l 210 831 l 210 522 l 510 522 q 649 561 606 522 q 693 678 693 600 q 656 794 693 758 q 525 831 619 831 m 210 93 l 535 93 q 708 261 708 93 q 513 435 708 435 l 210 435 l 210 93 z "},"C":{"ha":1050,"x_min":76,"x_max":981,"o":"m 538 -24 q 192 109 308 -24 q 76 463 76 242 q 194 815 76 682 q 540 949 311 949 q 976 579 940 949 l 860 579 q 538 853 831 853 q 197 463 197 853 q 535 72 197 72 q 771 149 689 72 q 863 368 853 225 l 981 368 q 860 80 968 183 q 538 -24 751 -24 z "},"D":{"ha":978,"x_min":94,"x_max":908,"o":"m 478 924 q 801 795 693 924 q 908 464 908 667 q 801 130 908 260 q 478 0 693 0 l 94 0 l 94 924 l 478 924 m 210 93 l 457 93 q 711 186 635 93 q 788 464 788 279 q 712 739 788 647 q 457 831 636 831 l 210 831 l 210 93 z "},"E":{"ha":869,"x_min":94,"x_max":782,"o":"m 210 429 l 210 93 l 782 93 l 782 0 l 94 0 l 94 924 l 778 924 l 778 831 l 210 831 l 210 521 l 736 521 l 736 429 l 210 429 z "},"F":{"ha":853,"x_min":94,"x_max":776,"o":"m 776 924 l 776 831 l 210 831 l 210 514 l 735 514 l 735 422 l 210 422 l 210 0 l 94 0 l 94 924 l 776 924 z "},"G":{"ha":1085,"x_min":76,"x_max":985,"o":"m 524 -24 q 190 109 303 -24 q 76 463 76 242 q 195 815 76 682 q 544 949 314 949 q 985 593 944 949 l 865 593 q 770 790 847 728 q 540 853 693 853 q 281 756 365 853 q 197 463 197 660 q 281 169 197 267 q 540 72 364 72 q 871 369 825 72 l 454 369 l 454 456 l 983 456 l 983 1 l 879 1 l 879 226 q 759 46 846 115 q 524 -24 672 -24 z "},"H":{"ha":957,"x_min":94,"x_max":861,"o":"m 747 524 l 747 924 l 861 924 l 861 0 l 747 0 l 747 431 l 210 431 l 210 0 l 94 0 l 94 924 l 210 924 l 210 524 l 747 524 z "},"I":{"ha":692,"x_min":93,"x_max":599,"o":"m 599 924 l 599 831 l 403 831 l 403 93 l 599 93 l 599 0 l 93 0 l 93 93 l 289 93 l 289 831 l 93 831 l 93 924 l 599 924 z "},"J":{"ha":585,"x_min":53,"x_max":494,"o":"m 319 0 l 53 0 l 53 93 l 381 93 l 381 924 l 494 924 l 494 163 q 456 38 494 76 q 319 0 417 0 z "},"K":{"ha":926,"x_min":94,"x_max":861,"o":"m 839 924 l 474 532 l 861 6 l 861 0 l 721 0 l 396 450 l 210 250 l 210 0 l 94 0 l 94 924 l 210 924 l 210 399 l 688 924 l 839 924 z "},"L":{"ha":724,"x_min":94,"x_max":693,"o":"m 210 924 l 210 93 l 693 93 l 693 0 l 94 0 l 94 924 l 210 924 z "},"M":{"ha":1199,"x_min":94,"x_max":1104,"o":"m 1104 924 l 1104 0 l 989 0 l 989 838 l 678 0 l 522 0 l 210 838 l 210 0 l 94 0 l 94 924 l 296 924 l 601 104 l 906 924 l 1104 924 z "},"N":{"ha":976,"x_min":94,"x_max":881,"o":"m 767 78 l 767 924 l 881 924 l 881 0 l 688 0 l 268 725 q 210 846 233 792 l 210 0 l 94 0 l 94 924 l 289 924 l 708 197 q 767 78 736 147 z "},"O":{"ha":1074,"x_min":76,"x_max":997,"o":"m 882 110 q 824 43 882 110 q 536 -24 767 -24 q 191 109 306 -24 q 76 463 76 242 q 191 815 76 681 q 536 949 306 949 q 743 912 653 949 q 888 808 833 875 q 969 654 942 742 q 997 463 997 567 q 882 110 997 243 m 279 756 q 238 708 279 756 q 197 463 197 660 q 279 169 197 265 q 536 72 361 72 q 794 169 711 72 q 876 463 876 265 q 794 756 876 660 q 536 853 711 853 q 279 756 361 853 z "},"P":{"ha":856,"x_min":94,"x_max":797,"o":"m 518 924 q 728 849 660 924 q 797 654 797 774 q 727 459 797 535 q 513 383 657 383 l 211 383 l 211 0 l 94 0 l 94 924 l 518 924 m 211 476 l 489 476 q 676 654 676 476 q 493 831 676 831 l 211 831 l 211 476 z "},"Q":{"ha":1094,"x_min":76,"x_max":1022,"o":"m 76 476 q 192 821 76 693 q 542 949 308 949 q 890 822 774 949 q 1006 486 1006 694 q 944 242 1006 344 q 761 92 882 139 l 1022 92 l 1022 0 l 542 0 q 192 128 308 0 q 76 476 76 257 m 197 476 q 281 189 197 282 q 542 96 364 96 q 801 189 718 96 q 885 476 885 282 q 802 761 885 669 q 542 853 719 853 q 281 761 364 853 q 197 476 197 669 z "},"R":{"ha":899,"x_min":94,"x_max":808,"o":"m 779 244 l 779 147 q 797 0 779 75 l 685 0 q 668 143 668 53 l 668 228 q 469 414 668 414 l 210 414 l 210 0 l 94 0 l 94 924 l 525 924 q 737 859 665 924 q 808 681 808 794 q 758 528 808 590 q 629 447 708 465 q 742 383 704 426 q 779 244 779 339 m 210 500 l 511 500 q 688 671 688 500 q 513 831 688 831 l 210 831 l 210 500 z "},"S":{"ha":914,"x_min":72,"x_max":840,"o":"m 72 317 l 185 317 q 475 69 189 69 q 667 113 611 69 q 724 242 724 157 q 683 353 724 314 q 556 407 643 392 l 338 440 q 160 518 218 458 q 103 682 103 578 q 192 874 103 800 q 454 949 282 949 q 724 868 629 949 q 828 649 818 788 l 717 649 q 453 858 696 858 q 277 812 335 858 q 219 685 219 765 q 358 539 219 561 l 589 504 q 778 424 715 483 q 840 257 840 365 q 475 -21 840 -21 q 168 73 264 -21 q 72 317 72 167 z "},"T":{"ha":871,"x_min":46,"x_max":824,"o":"m 46 924 l 824 924 l 824 831 l 493 831 l 493 -1 l 379 -1 l 379 831 l 46 831 l 46 924 z "},"U":{"ha":935,"x_min":93,"x_max":843,"o":"m 93 331 l 93 924 l 207 924 l 207 344 q 269 133 207 192 q 468 74 332 74 q 665 133 603 74 q 728 344 728 192 l 728 924 l 843 924 l 843 331 q 468 -22 843 -22 q 93 331 93 -22 z "},"V":{"ha":942,"x_min":53,"x_max":888,"o":"m 511 211 l 771 924 l 888 924 l 554 0 l 388 0 l 53 924 l 174 924 l 432 211 q 472 89 456 147 q 511 211 485 136 z "},"W":{"ha":1388,"x_min":68,"x_max":1319,"o":"m 1010 74 l 1204 924 l 1319 924 l 1108 0 l 914 0 l 694 836 l 474 0 l 279 0 l 68 924 l 185 924 l 379 74 l 604 924 l 785 924 l 1010 74 z "},"X":{"ha":964,"x_min":64,"x_max":903,"o":"m 554 467 l 903 0 l 760 0 l 479 376 l 203 0 l 64 0 l 410 469 l 71 924 l 211 924 l 485 557 l 754 924 l 889 924 l 554 467 z "},"Y":{"ha":888,"x_min":39,"x_max":849,"o":"m 508 542 l 719 924 l 849 924 l 501 324 l 501 0 l 386 0 l 386 324 l 39 924 l 171 924 l 381 542 q 444 424 415 476 q 474 477 451 436 q 508 542 496 518 z "},"Z":{"ha":949,"x_min":90,"x_max":865,"o":"m 861 831 l 232 93 l 865 93 l 865 0 l 90 0 l 90 93 l 721 831 l 99 831 l 99 924 l 861 924 l 861 831 z "},"[":{"ha":676,"x_min":107,"x_max":614,"o":"m 614 1035 l 614 940 l 221 940 l 221 -183 l 614 -183 l 614 -278 l 107 -278 l 107 1035 l 614 1035 z "},"\\":{"ha":444,"x_min":14,"x_max":429,"o":"m 114 924 l 429 0 l 329 0 l 14 924 l 114 924 z "},"]":{"ha":678,"x_min":63,"x_max":571,"o":"m 63 1035 l 571 1035 l 571 -278 l 63 -278 l 63 -183 l 456 -183 l 456 940 l 63 940 l 63 1035 z "},"^":{"ha":700,"x_min":118,"x_max":582,"o":"m 406 924 l 582 532 l 490 532 l 350 846 l 208 532 l 118 532 l 294 924 l 406 924 z "},"_":{"ha":649,"x_min":46,"x_max":601,"o":"m 46 -85 l 46 0 l 601 0 l 601 -85 l 46 -85 z "},"`":{"ha":833,"x_min":43,"x_max":368,"o":"m 43 867 l 76 951 l 368 822 l 350 779 l 43 867 z "},"a":{"ha":761,"x_min":81,"x_max":682,"o":"m 310 -18 q 144 35 207 -18 q 81 183 81 88 q 292 392 81 357 l 468 421 q 549 449 525 431 q 572 506 572 467 q 401 631 572 631 q 207 476 219 631 l 97 476 q 178 653 100 589 q 397 718 256 718 q 604 660 535 718 q 674 506 674 603 l 674 172 q 682 0 674 82 l 581 0 q 571 163 571 104 q 483 35 547 88 q 310 -18 419 -18 m 332 69 q 510 146 447 69 q 572 329 572 222 l 572 389 q 447 342 531 360 l 332 318 q 226 273 260 303 q 193 188 193 243 q 231 99 193 129 q 332 69 268 69 z "},"b":{"ha":858,"x_min":99,"x_max":790,"o":"m 472 717 q 710 616 629 717 q 790 347 790 515 q 710 79 790 181 q 472 -22 629 -22 q 210 133 285 -22 l 210 0 l 99 0 l 99 972 l 210 972 l 210 563 q 472 717 283 717 m 450 68 q 623 137 568 68 q 678 347 678 206 q 623 558 678 489 q 450 626 568 626 q 210 347 210 626 q 450 68 210 68 z "},"c":{"ha":804,"x_min":67,"x_max":746,"o":"m 67 347 q 158 614 67 511 q 414 717 250 717 q 647 642 565 717 q 738 440 729 567 l 633 440 q 418 626 606 626 q 179 347 179 626 q 414 68 179 68 q 572 121 515 68 q 640 265 629 174 l 746 265 q 653 58 739 139 q 414 -22 567 -22 q 158 80 249 -22 q 67 347 67 182 z "},"d":{"ha":858,"x_min":68,"x_max":760,"o":"m 649 563 l 649 972 l 760 972 l 760 0 l 649 0 l 649 133 q 386 -22 574 -22 q 149 79 229 -22 q 68 347 68 181 q 149 616 68 515 q 386 717 229 717 q 649 563 575 717 m 408 68 q 649 347 649 68 q 408 626 649 626 q 235 558 290 626 q 181 347 181 489 q 235 137 181 206 q 408 68 290 68 z "},"e":{"ha":800,"x_min":67,"x_max":738,"o":"m 415 63 q 635 214 599 63 l 736 214 q 646 48 724 118 q 411 -22 568 -22 q 153 80 240 -22 q 67 349 67 182 q 156 614 67 511 q 411 717 244 717 q 651 622 564 717 q 738 371 738 526 q 735 322 738 339 l 176 322 q 415 63 188 63 m 413 632 q 179 406 200 632 l 629 406 q 413 632 621 632 z "},"f":{"ha":513,"x_min":43,"x_max":513,"o":"m 271 0 l 160 0 l 160 607 l 43 607 l 43 669 l 160 699 l 160 832 q 199 938 160 904 q 336 972 239 972 l 513 972 l 513 888 l 263 888 l 263 694 l 474 694 l 474 607 l 271 607 l 271 0 z "},"g":{"ha":856,"x_min":67,"x_max":757,"o":"m 646 575 l 646 694 l 757 694 l 757 -1 q 677 -219 757 -146 q 414 -293 597 -293 q 176 -228 260 -293 q 83 -44 93 -164 l 193 -44 q 414 -206 208 -206 q 592 -158 538 -206 q 646 0 646 -111 l 646 150 q 388 15 575 15 q 147 108 228 15 q 67 365 67 200 q 147 622 67 529 q 388 714 228 714 q 646 575 572 714 m 414 103 q 587 165 528 103 q 646 365 646 228 q 587 564 646 501 q 414 626 528 626 q 237 565 293 626 q 181 365 181 504 q 237 165 181 226 q 414 103 293 103 z "},"h":{"ha":814,"x_min":101,"x_max":726,"o":"m 479 717 q 667 649 607 717 q 726 443 726 581 l 726 0 l 615 0 l 615 431 q 573 580 615 536 q 449 624 531 624 q 213 265 213 624 l 213 0 l 101 0 l 101 972 l 213 972 l 213 511 q 479 717 281 717 z "},"i":{"ha":315,"x_min":86,"x_max":229,"o":"m 229 808 l 86 808 l 86 924 l 229 924 l 229 808 m 213 0 l 101 0 l 101 694 l 213 694 l 213 0 z "},"j":{"ha":299,"x_min":-83,"x_max":224,"o":"m 81 924 l 224 924 l 224 808 l 81 808 l 81 924 m 31 -278 l -83 -278 l -83 -187 l 97 -187 l 97 694 l 208 694 l 208 -115 q 168 -240 208 -201 q 31 -278 128 -278 z "},"k":{"ha":789,"x_min":101,"x_max":758,"o":"m 758 0 l 618 0 l 356 335 l 213 199 l 213 0 l 101 0 l 101 972 l 213 972 l 213 322 q 279 394 242 360 l 592 694 l 729 694 l 729 692 l 425 401 l 758 0 z "},"l":{"ha":311,"x_min":100,"x_max":211,"o":"m 211 0 l 100 0 l 100 972 l 211 972 l 211 0 z "},"m":{"ha":1275,"x_min":101,"x_max":1188,"o":"m 953 717 q 1188 447 1188 717 l 1188 0 l 1076 0 l 1076 435 q 1037 580 1076 536 q 918 624 997 624 q 752 535 806 624 q 699 265 699 446 l 699 0 l 590 0 l 590 435 q 550 580 590 536 q 431 624 510 624 q 213 265 213 624 l 213 0 l 101 0 l 101 694 l 213 694 l 213 522 q 465 717 276 717 q 693 517 668 717 q 953 717 756 717 z "},"n":{"ha":814,"x_min":101,"x_max":726,"o":"m 479 717 q 667 649 607 717 q 726 443 726 581 l 726 0 l 615 0 l 615 431 q 573 580 615 536 q 449 624 531 624 q 213 265 213 624 l 213 0 l 101 0 l 101 694 l 213 694 l 213 511 q 479 717 281 717 z "},"o":{"ha":832,"x_min":67,"x_max":765,"o":"m 417 -22 q 157 81 247 -22 q 67 349 67 183 q 157 614 67 511 q 417 717 247 717 q 675 614 585 717 q 765 349 765 511 q 675 81 765 185 q 417 -22 585 -22 m 238 559 q 209 525 238 559 q 179 347 179 492 q 238 135 179 203 q 417 68 297 68 q 594 135 536 68 q 653 347 653 203 q 594 559 653 492 q 417 626 536 626 q 238 559 297 626 z "},"p":{"ha":858,"x_min":99,"x_max":790,"o":"m 472 717 q 710 615 629 717 q 790 347 790 514 q 710 78 790 179 q 472 -22 629 -22 q 210 132 283 -22 l 210 -278 l 99 -278 l 99 694 l 210 694 l 210 561 q 472 717 285 717 m 450 68 q 623 137 568 68 q 678 347 678 206 q 623 558 678 489 q 450 626 568 626 q 210 347 210 626 q 450 68 210 68 z "},"q":{"ha":858,"x_min":68,"x_max":760,"o":"m 649 561 l 649 694 l 760 694 l 760 -278 l 649 -278 l 649 132 q 386 -22 575 -22 q 149 78 229 -22 q 68 347 68 179 q 149 615 68 514 q 386 717 229 717 q 649 561 574 717 m 408 68 q 649 347 649 68 q 408 626 649 626 q 235 558 290 626 q 181 347 181 489 q 235 137 181 206 q 408 68 290 68 z "},"r":{"ha":535,"x_min":101,"x_max":492,"o":"m 467 704 l 492 704 l 492 594 l 463 594 q 266 510 319 599 q 213 256 213 421 l 213 0 l 101 0 l 101 694 l 213 694 l 213 507 q 467 704 279 704 z "},"s":{"ha":717,"x_min":53,"x_max":657,"o":"m 53 232 l 156 232 q 376 63 171 63 q 547 183 547 63 q 421 299 547 281 l 260 322 q 71 510 71 349 q 144 663 71 607 q 349 718 218 718 q 559 657 482 718 q 643 496 636 596 l 533 496 q 482 594 528 556 q 346 633 436 633 q 179 518 179 633 q 292 415 179 432 l 439 394 q 606 327 556 378 q 657 189 657 276 q 374 -22 657 -22 q 133 47 211 -22 q 53 232 56 115 z "},"t":{"ha":543,"x_min":28,"x_max":500,"o":"m 492 0 l 328 0 q 196 38 232 0 q 160 163 160 75 l 160 607 l 28 607 l 28 669 l 169 704 l 211 849 l 271 849 l 271 694 l 500 694 l 500 607 l 271 607 l 271 90 l 492 90 l 492 0 z "},"u":{"ha":813,"x_min":88,"x_max":711,"o":"m 88 251 l 88 694 l 199 694 l 199 264 q 243 112 199 154 q 374 69 288 69 q 541 163 482 69 q 600 429 600 257 l 600 694 l 711 694 l 711 0 l 600 0 l 600 179 q 342 -22 536 -22 q 149 46 211 -22 q 88 251 88 114 z "},"v":{"ha":763,"x_min":35,"x_max":729,"o":"m 385 97 l 619 694 l 729 694 l 456 0 l 308 0 l 35 694 l 151 694 l 385 97 z "},"w":{"ha":1218,"x_min":39,"x_max":1178,"o":"m 889 83 l 1069 694 l 1178 694 l 967 0 l 808 0 l 608 563 l 410 0 l 251 0 l 39 694 l 156 694 l 335 83 l 554 694 l 669 694 l 889 83 z "},"x":{"ha":768,"x_min":40,"x_max":731,"o":"m 167 0 l 40 0 l 317 350 l 47 694 l 181 694 l 385 421 l 589 694 l 717 694 l 450 353 l 731 0 l 597 0 l 382 283 l 167 0 z "},"y":{"ha":772,"x_min":39,"x_max":738,"o":"m 413 160 l 628 694 l 738 694 l 411 -115 q 339 -243 375 -208 q 215 -278 303 -278 l 83 -278 l 83 -187 l 276 -187 l 353 0 l 314 0 l 39 694 l 156 694 l 368 160 l 392 93 l 413 160 z "},"z":{"ha":757,"x_min":79,"x_max":690,"o":"m 683 610 l 214 85 l 690 85 l 690 0 l 79 0 l 79 85 l 551 610 l 79 610 l 79 694 l 683 694 l 683 610 z "},"{":{"ha":538,"x_min":56,"x_max":492,"o":"m 96 350 l 56 350 l 56 436 l 96 436 q 179 466 154 436 q 204 561 204 496 l 204 819 q 492 1074 204 1074 l 492 1026 q 358 972 401 1024 q 315 807 315 919 l 315 546 q 208 401 315 429 l 208 385 q 315 240 315 357 l 315 -21 q 358 -185 315 -133 q 492 -240 401 -237 l 492 -287 q 204 -33 204 -287 l 204 225 q 179 320 204 290 q 96 350 154 350 z "},"|":{"ha":338,"x_min":111,"x_max":226,"o":"m 226 -278 l 111 -278 l 111 1035 l 226 1035 l 226 -278 z "},"}":{"ha":538,"x_min":46,"x_max":482,"o":"m 482 436 l 482 350 l 442 350 q 358 320 383 350 q 333 225 333 290 l 333 -33 q 46 -287 333 -287 l 46 -240 q 179 -185 136 -237 q 222 -21 222 -133 l 222 240 q 329 385 222 357 l 329 401 q 222 546 222 429 l 222 807 q 179 972 222 919 q 46 1026 136 1024 l 46 1074 q 333 819 333 1074 l 333 561 q 358 466 333 496 q 442 436 383 436 l 482 436 z "},"~":{"ha":685,"x_min":118,"x_max":567,"o":"m 458 246 q 382 265 418 246 q 324 306 346 283 q 279 348 303 329 q 238 367 256 367 q 200 315 200 367 l 200 249 l 118 249 l 118 333 q 225 443 118 443 q 303 424 267 443 q 361 383 340 406 q 406 341 382 360 q 449 322 429 322 q 485 374 485 322 l 485 440 l 567 440 l 567 356 q 534 272 567 299 q 458 246 501 246 z "},"¡":{"ha":294,"x_min":75,"x_max":219,"o":"m 75 572 l 75 694 l 219 694 l 219 572 l 75 572 m 92 -229 l 110 424 l 185 424 l 203 -229 l 92 -229 z "},"¢":{"ha":711,"x_min":111,"x_max":600,"o":"m 514 556 l 600 556 q 547 413 599 469 q 410 344 496 357 l 410 240 l 317 240 l 317 343 q 166 426 221 357 q 111 606 111 496 q 166 785 111 715 q 317 869 221 856 l 317 972 l 410 972 l 410 869 q 542 803 493 857 q 594 664 590 750 l 510 664 q 364 794 493 794 q 204 606 204 794 q 361 418 204 418 q 514 556 501 418 z "},"£":{"ha":774,"x_min":111,"x_max":663,"o":"m 336 447 l 336 88 l 663 88 l 663 0 l 111 0 l 111 88 l 225 88 l 225 447 l 128 447 l 128 533 l 225 533 l 225 810 q 265 934 225 896 q 403 972 306 972 l 633 972 l 633 882 l 336 882 l 336 533 l 564 533 l 564 447 l 336 447 z "},"¥":{"ha":888,"x_min":39,"x_max":849,"o":"m 719 924 l 849 924 l 544 399 l 722 399 l 722 324 l 501 324 l 501 240 l 722 240 l 722 164 l 501 164 l 501 0 l 386 0 l 386 164 l 167 164 l 167 240 l 386 240 l 386 324 l 167 324 l 167 399 l 343 399 l 39 924 l 171 924 l 381 542 q 444 411 392 519 q 508 542 497 519 l 719 924 z "},"¦":{"ha":338,"x_min":111,"x_max":226,"o":"m 226 489 l 111 489 l 111 1035 l 226 1035 l 226 489 m 226 -278 l 111 -278 l 111 268 l 226 268 l 226 -278 z "},"§":{"ha":779,"x_min":106,"x_max":672,"o":"m 107 -44 l 197 -44 q 400 -224 197 -224 q 535 -195 493 -224 q 578 -104 578 -167 q 551 -28 578 -54 q 461 8 525 -1 l 307 32 q 128 215 128 60 q 393 415 128 400 q 530 449 488 422 q 572 533 572 475 q 544 610 572 583 q 454 646 517 636 l 300 669 q 122 854 122 697 q 193 998 122 944 q 386 1051 264 1051 q 581 993 511 1051 q 657 825 651 935 l 567 825 q 386 976 554 976 q 260 945 304 976 q 217 857 217 914 q 317 757 217 774 l 479 732 q 667 546 667 706 q 601 397 667 443 q 393 338 535 350 q 263 303 303 329 q 222 222 222 276 q 324 119 222 136 l 486 94 q 672 -92 672 65 q 606 -248 672 -197 q 400 -299 540 -299 q 181 -233 256 -299 q 107 -44 106 -168 z "},"¨":{"ha":833,"x_min":60,"x_max":450,"o":"m 194 808 l 60 808 l 60 924 l 194 924 l 194 808 m 450 808 l 315 808 l 315 924 l 450 924 l 450 808 z "},"©":{"ha":1196,"x_min":108,"x_max":1088,"o":"m 599 -25 q 251 117 394 -25 q 108 463 108 260 q 251 806 108 663 q 599 949 394 949 q 944 806 801 949 q 1088 463 1088 663 q 944 117 1088 260 q 599 -25 801 -25 m 599 74 q 872 187 760 74 q 983 463 983 300 q 872 736 983 622 q 599 850 760 850 q 325 736 438 850 q 213 463 213 622 q 324 187 213 300 q 599 74 436 74 m 413 261 q 378 299 413 261 q 343 463 343 336 q 414 664 343 589 q 604 739 485 739 q 778 681 714 739 q 846 522 842 624 l 756 522 q 607 660 743 660 q 440 463 440 660 q 604 265 440 265 q 764 411 749 265 l 853 411 q 783 248 851 310 q 604 186 714 186 q 413 261 483 186 z "},"«":{"ha":900,"x_min":79,"x_max":828,"o":"m 365 0 l 79 343 l 79 351 l 365 694 l 496 694 l 200 347 l 496 0 l 365 0 m 697 0 l 411 343 l 411 351 l 697 694 l 828 694 l 532 347 l 828 0 l 697 0 z "},"¬":{"ha":792,"x_min":118,"x_max":674,"o":"m 118 389 l 674 389 l 674 158 l 582 158 l 582 304 l 118 304 l 118 389 z "},"®":{"ha":796,"x_min":83,"x_max":713,"o":"m 175 857 q 221 903 175 857 q 397 949 267 949 q 620 857 528 949 q 713 636 713 765 q 620 412 713 504 q 397 319 528 319 q 175 412 267 319 q 83 636 83 504 q 175 857 83 765 m 399 388 q 572 460 500 388 q 643 636 643 533 q 572 810 643 739 q 399 882 500 882 q 224 810 296 882 q 153 636 153 738 q 224 460 153 533 q 399 388 296 388 m 538 707 q 475 629 538 642 q 526 560 526 619 l 526 531 q 533 472 526 497 l 474 472 q 465 529 465 500 l 465 557 q 414 608 465 608 l 340 608 l 340 472 l 278 472 l 278 796 l 432 796 q 510 772 482 796 q 538 707 538 749 m 340 657 l 419 657 q 469 701 469 657 q 424 744 469 744 l 340 744 l 340 657 z "},"¯":{"ha":833,"x_min":131,"x_max":596,"o":"m 131 924 l 596 924 l 596 839 l 131 839 l 131 924 z "},"°":{"ha":561,"x_min":63,"x_max":499,"o":"m 440 629 q 410 598 440 629 q 281 567 381 567 q 122 629 181 567 q 63 783 63 692 q 122 933 63 871 q 281 994 181 994 q 440 933 381 994 q 499 783 499 871 q 440 629 499 692 m 149 782 q 188 685 149 722 q 281 647 226 647 q 374 685 336 647 q 413 782 413 722 q 375 880 413 844 q 281 915 338 915 q 187 880 225 915 q 149 782 149 844 z "},"±":{"ha":740,"x_min":94,"x_max":646,"o":"m 417 671 l 417 506 l 646 506 l 646 421 l 417 421 l 417 253 l 325 253 l 325 421 l 94 421 l 94 506 l 325 506 l 325 671 l 417 671 m 646 97 l 94 97 l 94 183 l 646 183 l 646 97 z "},"´":{"ha":833,"x_min":42,"x_max":367,"o":"m 42 822 l 333 951 l 367 867 l 61 779 l 42 822 z "},"µ":{"ha":813,"x_min":88,"x_max":711,"o":"m 600 429 l 600 694 l 711 694 l 711 0 l 600 0 l 600 168 q 350 -22 535 -22 q 193 31 254 -22 l 193 -278 l 88 -278 l 88 694 l 199 694 l 199 264 q 243 112 199 154 q 374 69 288 69 q 541 163 482 69 q 600 429 600 257 z "},"¶":{"ha":907,"x_min":83,"x_max":796,"o":"m 364 924 l 590 924 l 590 -278 l 475 -278 l 475 383 l 368 383 q 153 459 224 383 q 83 654 83 535 q 153 849 83 774 q 364 924 222 924 m 679 -278 l 679 924 l 796 924 l 796 -278 l 679 -278 z "},"·":{"ha":201,"x_min":29,"x_max":174,"o":"m 174 281 l 29 281 l 29 403 l 174 403 l 174 281 z "},"¸":{"ha":833,"x_min":83,"x_max":288,"o":"m 201 -226 l 83 -226 l 83 -149 l 193 -149 l 146 32 l 233 32 l 275 -125 q 267 -201 288 -175 q 201 -226 246 -226 z "},"»":{"ha":900,"x_min":72,"x_max":821,"o":"m 489 351 l 489 343 l 203 0 l 72 0 l 368 347 l 72 694 l 203 694 l 489 351 m 821 351 l 821 343 l 535 0 l 404 0 l 700 347 l 404 694 l 535 694 l 821 351 z "},"¿":{"ha":871,"x_min":72,"x_max":781,"o":"m 354 694 l 499 694 l 499 572 l 354 572 l 354 694 m 432 344 l 514 344 l 514 250 l 440 250 q 193 43 193 250 q 248 -101 193 -44 q 406 -158 303 -158 q 663 86 649 -158 l 781 86 q 757 -40 778 18 q 694 -147 736 -97 q 579 -226 653 -197 q 406 -254 506 -254 q 156 -172 240 -254 q 72 35 72 -89 q 169 261 72 178 q 432 344 265 344 z "},"À":{"ha":971,"x_min":51,"x_max":922,"o":"m 358 1176 l 650 1047 l 631 1004 l 325 1092 l 358 1176 m 922 0 l 806 0 l 715 236 l 257 236 l 167 0 l 51 0 l 401 924 l 572 924 l 922 0 m 486 840 l 292 329 l 681 329 l 486 840 z "},"Á":{"ha":971,"x_min":51,"x_max":922,"o":"m 617 1176 l 650 1092 l 344 1004 l 325 1047 l 617 1176 m 922 0 l 806 0 l 715 236 l 257 236 l 167 0 l 51 0 l 401 924 l 572 924 l 922 0 m 486 840 l 292 329 l 681 329 l 486 840 z "},"Â":{"ha":971,"x_min":51,"x_max":922,"o":"m 633 1015 l 488 1126 l 342 1015 l 288 1071 l 442 1182 l 533 1182 l 688 1071 l 633 1015 m 922 0 l 806 0 l 715 236 l 257 236 l 167 0 l 51 0 l 401 924 l 572 924 l 922 0 m 486 840 l 292 329 l 681 329 l 486 840 z "},"Ã":{"ha":971,"x_min":51,"x_max":922,"o":"m 368 1074 l 368 1044 l 286 1044 l 286 1081 q 315 1148 286 1126 q 389 1169 344 1169 q 498 1138 435 1169 q 576 1106 561 1106 q 607 1138 607 1106 l 607 1167 l 689 1167 l 689 1131 q 660 1063 689 1085 q 586 1042 631 1042 q 482 1074 550 1042 q 399 1106 414 1106 q 368 1074 368 1106 m 922 0 l 806 0 l 715 236 l 257 236 l 167 0 l 51 0 l 401 924 l 572 924 l 922 0 m 486 840 l 292 329 l 681 329 l 486 840 z "},"Ä":{"ha":971,"x_min":51,"x_max":922,"o":"m 301 1140 l 435 1140 l 435 1025 l 301 1025 l 301 1140 m 538 1140 l 672 1140 l 672 1025 l 538 1025 l 538 1140 m 922 0 l 806 0 l 715 236 l 257 236 l 167 0 l 51 0 l 401 924 l 572 924 l 922 0 m 486 840 l 292 329 l 681 329 l 486 840 z "},"Å":{"ha":971,"x_min":51,"x_max":922,"o":"m 565 1019 q 550 1004 565 1019 q 488 989 536 989 q 410 1019 439 989 q 382 1093 382 1050 q 410 1166 382 1136 q 488 1196 439 1196 q 565 1166 536 1196 q 593 1093 593 1136 q 565 1019 593 1050 m 522 1130 q 515 1136 522 1130 q 488 1143 508 1143 q 453 1130 467 1143 q 439 1093 439 1117 q 453 1056 439 1071 q 488 1042 467 1042 q 522 1056 508 1042 q 536 1093 536 1071 q 522 1130 536 1117 m 922 0 l 806 0 l 715 236 l 257 236 l 167 0 l 51 0 l 401 924 l 572 924 l 922 0 m 486 840 l 292 329 l 681 329 l 486 840 z "},"Æ":{"ha":1454,"x_min":35,"x_max":1367,"o":"m 794 429 l 794 93 l 1367 93 l 1367 0 l 681 0 l 681 236 l 300 236 l 151 0 l 35 0 l 35 6 l 615 924 l 1363 924 l 1363 831 l 794 831 l 794 521 l 1321 521 l 1321 429 l 794 429 m 681 840 l 360 331 l 681 331 l 681 840 z "},"Ç":{"ha":1050,"x_min":76,"x_max":981,"o":"m 863 368 l 981 368 q 874 93 969 196 q 590 -22 778 -10 l 618 -125 q 610 -201 631 -175 q 544 -226 589 -226 l 426 -226 l 426 -149 l 536 -149 l 503 -22 q 183 119 290 -12 q 76 463 76 250 q 194 815 76 682 q 540 949 311 949 q 976 579 940 949 l 860 579 q 538 853 831 853 q 197 463 197 853 q 535 72 197 72 q 771 149 689 72 q 863 368 853 225 z "},"È":{"ha":869,"x_min":94,"x_max":782,"o":"m 294 1176 l 586 1047 l 567 1004 l 261 1092 l 294 1176 m 210 429 l 210 93 l 782 93 l 782 0 l 94 0 l 94 924 l 778 924 l 778 831 l 210 831 l 210 521 l 736 521 l 736 429 l 210 429 z "},"É":{"ha":869,"x_min":94,"x_max":782,"o":"m 553 1176 l 586 1092 l 281 1004 l 261 1047 l 553 1176 m 210 429 l 210 93 l 782 93 l 782 0 l 94 0 l 94 924 l 778 924 l 778 831 l 210 831 l 210 521 l 736 521 l 736 429 l 210 429 z "},"Ê":{"ha":869,"x_min":94,"x_max":782,"o":"m 569 1015 l 424 1126 l 278 1015 l 224 1071 l 378 1182 l 469 1182 l 624 1071 l 569 1015 m 210 429 l 210 93 l 782 93 l 782 0 l 94 0 l 94 924 l 778 924 l 778 831 l 210 831 l 210 521 l 736 521 l 736 429 l 210 429 z "},"Ë":{"ha":869,"x_min":94,"x_max":782,"o":"m 239 1140 l 372 1140 l 372 1025 l 239 1025 l 239 1140 m 475 1140 l 610 1140 l 610 1025 l 475 1025 l 475 1140 m 210 429 l 210 93 l 782 93 l 782 0 l 94 0 l 94 924 l 778 924 l 778 831 l 210 831 l 210 521 l 736 521 l 736 429 l 210 429 z "},"Ì":{"ha":692,"x_min":93,"x_max":599,"o":"m 217 1176 l 508 1047 l 489 1004 l 183 1092 l 217 1176 m 599 924 l 599 831 l 403 831 l 403 93 l 599 93 l 599 0 l 93 0 l 93 93 l 289 93 l 289 831 l 93 831 l 93 924 l 599 924 z "},"Í":{"ha":692,"x_min":93,"x_max":599,"o":"m 474 1176 l 507 1092 l 201 1004 l 182 1047 l 474 1176 m 599 924 l 599 831 l 403 831 l 403 93 l 599 93 l 599 0 l 93 0 l 93 93 l 289 93 l 289 831 l 93 831 l 93 924 l 599 924 z "},"Î":{"ha":692,"x_min":93,"x_max":599,"o":"m 492 1015 l 346 1126 l 200 1015 l 146 1071 l 300 1182 l 392 1182 l 546 1071 l 492 1015 m 599 924 l 599 831 l 403 831 l 403 93 l 599 93 l 599 0 l 93 0 l 93 93 l 289 93 l 289 831 l 93 831 l 93 924 l 599 924 z "},"Ï":{"ha":692,"x_min":93,"x_max":599,"o":"m 160 1140 l 293 1140 l 293 1025 l 160 1025 l 160 1140 m 396 1140 l 531 1140 l 531 1025 l 396 1025 l 396 1140 m 599 924 l 599 831 l 403 831 l 403 93 l 599 93 l 599 0 l 93 0 l 93 93 l 289 93 l 289 831 l 93 831 l 93 924 l 599 924 z "},"Ð":{"ha":1093,"x_min":46,"x_max":1024,"o":"m 593 924 q 788 888 704 924 q 923 788 872 851 q 999 642 974 724 q 1024 464 1024 561 q 917 130 1024 260 q 593 0 810 0 l 211 0 l 211 411 l 46 411 l 46 504 l 211 504 l 211 924 l 593 924 m 325 93 l 574 93 q 827 186 751 93 q 903 464 903 279 q 827 739 903 647 q 574 831 751 831 l 325 831 l 325 504 l 601 504 l 601 411 l 325 411 l 325 93 z "},"Ñ":{"ha":976,"x_min":94,"x_max":881,"o":"m 369 1074 l 369 1044 l 288 1044 l 288 1081 q 317 1148 288 1126 q 390 1169 346 1169 q 499 1138 436 1169 q 578 1106 563 1106 q 608 1138 608 1106 l 608 1167 l 690 1167 l 690 1131 q 661 1063 690 1085 q 588 1042 632 1042 q 483 1074 551 1042 q 400 1106 415 1106 q 369 1074 369 1106 m 767 78 l 767 924 l 881 924 l 881 0 l 688 0 l 268 725 q 210 846 233 792 l 210 0 l 94 0 l 94 924 l 289 924 l 708 197 q 767 78 736 147 z "},"Ò":{"ha":1074,"x_min":76,"x_max":997,"o":"m 374 1092 l 407 1176 l 699 1047 l 679 1004 l 374 1092 m 882 110 q 824 43 882 110 q 536 -24 767 -24 q 191 109 306 -24 q 76 463 76 242 q 191 815 76 681 q 536 949 306 949 q 743 912 653 949 q 888 808 833 875 q 969 654 942 742 q 997 463 997 567 q 882 110 997 243 m 279 756 q 238 708 279 756 q 197 463 197 660 q 279 169 197 265 q 536 72 361 72 q 794 169 711 72 q 876 463 876 265 q 794 756 876 660 q 536 853 711 853 q 279 756 361 853 z "},"Ó":{"ha":1074,"x_min":76,"x_max":997,"o":"m 393 1004 l 374 1047 l 665 1176 l 699 1092 l 393 1004 m 882 110 q 824 43 882 110 q 536 -24 767 -24 q 191 109 306 -24 q 76 463 76 242 q 191 815 76 681 q 536 949 306 949 q 743 912 653 949 q 888 808 833 875 q 969 654 942 742 q 997 463 997 567 q 882 110 997 243 m 279 756 q 238 708 279 756 q 197 463 197 660 q 279 169 197 265 q 536 72 361 72 q 794 169 711 72 q 876 463 876 265 q 794 756 876 660 q 536 853 711 853 q 279 756 361 853 z "},"Ô":{"ha":1074,"x_min":76,"x_max":997,"o":"m 582 1182 l 736 1071 l 682 1015 l 536 1126 l 390 1015 l 336 1071 l 490 1182 l 582 1182 m 882 110 q 824 43 882 110 q 536 -24 767 -24 q 191 109 306 -24 q 76 463 76 242 q 191 815 76 681 q 536 949 306 949 q 743 912 653 949 q 888 808 833 875 q 969 654 942 742 q 997 463 997 567 q 882 110 997 243 m 279 756 q 238 708 279 756 q 197 463 197 660 q 279 169 197 265 q 536 72 361 72 q 794 169 711 72 q 876 463 876 265 q 794 756 876 660 q 536 853 711 853 q 279 756 361 853 z "},"Õ":{"ha":1074,"x_min":76,"x_max":997,"o":"m 635 1042 q 531 1074 599 1042 q 447 1106 463 1106 q 417 1074 417 1106 l 417 1044 l 335 1044 l 335 1081 q 364 1148 335 1126 q 438 1169 393 1169 q 547 1138 483 1169 q 625 1106 610 1106 q 656 1138 656 1106 l 656 1167 l 738 1167 l 738 1131 q 708 1063 738 1085 q 635 1042 679 1042 m 882 110 q 824 43 882 110 q 536 -24 767 -24 q 191 109 306 -24 q 76 463 76 242 q 191 815 76 681 q 536 949 306 949 q 743 912 653 949 q 888 808 833 875 q 969 654 942 742 q 997 463 997 567 q 882 110 997 243 m 279 756 q 238 708 279 756 q 197 463 197 660 q 279 169 197 265 q 536 72 361 72 q 794 169 711 72 q 876 463 876 265 q 794 756 876 660 q 536 853 711 853 q 279 756 361 853 z "},"Ö":{"ha":1074,"x_min":76,"x_max":997,"o":"m 485 1025 l 351 1025 l 351 1140 l 485 1140 l 485 1025 m 722 1025 l 588 1025 l 588 1140 l 722 1140 l 722 1025 m 882 110 q 824 43 882 110 q 536 -24 767 -24 q 191 109 306 -24 q 76 463 76 242 q 191 815 76 681 q 536 949 306 949 q 743 912 653 949 q 888 808 833 875 q 969 654 942 742 q 997 463 997 567 q 882 110 997 243 m 279 756 q 238 708 279 756 q 197 463 197 660 q 279 169 197 265 q 536 72 361 72 q 794 169 711 72 q 876 463 876 265 q 794 756 876 660 q 536 853 711 853 q 279 756 361 853 z "},"×":{"ha":792,"x_min":97,"x_max":694,"o":"m 629 664 l 694 599 l 458 363 l 692 129 l 631 68 l 397 301 l 163 67 l 97 131 l 332 367 l 99 600 l 160 660 l 393 426 l 629 664 z "},"Ø":{"ha":1074,"x_min":76,"x_max":997,"o":"m 826 1075 l 758 904 q 938 733 878 849 q 997 463 997 617 q 882 110 997 243 q 536 -24 767 -24 q 399 -8 464 -24 l 303 -250 l 213 -218 l 307 22 q 134 192 192 78 q 76 463 76 307 q 191 815 76 681 q 536 949 306 949 q 668 935 611 949 l 736 1107 l 826 1075 m 197 463 q 344 115 197 200 l 632 844 q 536 853 589 853 q 279 756 361 853 q 197 463 197 660 m 536 72 q 794 169 711 72 q 876 463 876 265 q 722 813 876 729 l 433 82 q 536 72 478 72 z "},"Ù":{"ha":935,"x_min":93,"x_max":843,"o":"m 631 1047 l 611 1004 l 306 1092 l 339 1176 l 631 1047 m 93 331 l 93 924 l 207 924 l 207 344 q 269 133 207 192 q 468 74 332 74 q 665 133 603 74 q 728 344 728 192 l 728 924 l 843 924 l 843 331 q 468 -22 843 -22 q 93 331 93 -22 z "},"Ú":{"ha":935,"x_min":93,"x_max":843,"o":"m 324 1004 l 304 1047 l 596 1176 l 629 1092 l 324 1004 m 93 331 l 93 924 l 207 924 l 207 344 q 269 133 207 192 q 468 74 332 74 q 665 133 603 74 q 728 344 728 192 l 728 924 l 843 924 l 843 331 q 468 -22 843 -22 q 93 331 93 -22 z "},"Û":{"ha":935,"x_min":93,"x_max":843,"o":"m 422 1182 l 514 1182 l 668 1071 l 614 1015 l 468 1126 l 322 1015 l 268 1071 l 422 1182 m 93 331 l 93 924 l 207 924 l 207 344 q 269 133 207 192 q 468 74 332 74 q 665 133 603 74 q 728 344 728 192 l 728 924 l 843 924 l 843 331 q 468 -22 843 -22 q 93 331 93 -22 z "},"Ü":{"ha":935,"x_min":93,"x_max":843,"o":"m 415 1140 l 415 1025 l 282 1025 l 282 1140 l 415 1140 m 653 1140 l 653 1025 l 518 1025 l 518 1140 l 653 1140 m 93 331 l 93 924 l 207 924 l 207 344 q 269 133 207 192 q 468 74 332 74 q 665 133 603 74 q 728 344 728 192 l 728 924 l 843 924 l 843 331 q 468 -22 843 -22 q 93 331 93 -22 z "},"Ý":{"ha":888,"x_min":39,"x_max":849,"o":"m 574 1176 l 607 1092 l 301 1004 l 282 1047 l 574 1176 m 508 542 l 719 924 l 849 924 l 501 324 l 501 0 l 386 0 l 386 324 l 39 924 l 171 924 l 381 542 q 444 424 415 476 q 474 477 451 436 q 508 542 496 518 z "},"Þ":{"ha":856,"x_min":94,"x_max":797,"o":"m 211 732 l 518 732 q 728 657 660 732 q 797 463 797 582 q 727 267 797 343 q 513 192 657 192 l 211 192 l 211 0 l 94 0 l 94 924 l 211 924 l 211 732 m 211 285 l 489 285 q 676 463 676 285 q 493 639 676 639 l 211 639 l 211 285 z "},"ß":{"ha":885,"x_min":94,"x_max":810,"o":"m 210 0 l 94 0 l 94 615 q 467 940 94 940 q 715 873 635 940 q 794 701 794 806 q 746 551 794 608 q 622 482 697 494 q 756 411 703 471 q 810 249 810 351 q 739 66 810 132 q 528 0 668 0 l 354 0 l 354 93 l 517 93 q 689 261 689 93 q 494 438 689 438 l 354 438 l 354 531 l 492 531 q 674 685 674 531 q 463 846 674 846 q 210 619 210 846 l 210 0 z "},"à":{"ha":761,"x_min":81,"x_max":682,"o":"m 263 951 l 554 822 l 536 779 l 229 867 l 263 951 m 310 -18 q 144 35 207 -18 q 81 183 81 88 q 292 392 81 357 l 468 421 q 549 449 525 431 q 572 506 572 467 q 401 631 572 631 q 207 476 219 631 l 97 476 q 178 653 100 589 q 397 718 256 718 q 604 660 535 718 q 674 506 674 603 l 674 172 q 682 0 674 82 l 581 0 q 571 163 571 104 q 483 35 547 88 q 310 -18 419 -18 m 332 69 q 510 146 447 69 q 572 329 572 222 l 572 389 q 447 342 531 360 l 332 318 q 226 273 260 303 q 193 188 193 243 q 231 99 193 129 q 332 69 268 69 z "},"á":{"ha":761,"x_min":81,"x_max":682,"o":"m 550 867 l 244 779 l 225 822 l 517 951 l 550 867 m 310 -18 q 144 35 207 -18 q 81 183 81 88 q 292 392 81 357 l 468 421 q 549 449 525 431 q 572 506 572 467 q 401 631 572 631 q 207 476 219 631 l 97 476 q 178 653 100 589 q 397 718 256 718 q 604 660 535 718 q 674 506 674 603 l 674 172 q 682 0 674 82 l 581 0 q 571 163 571 104 q 483 35 547 88 q 310 -18 419 -18 m 332 69 q 510 146 447 69 q 572 329 572 222 l 572 389 q 447 342 531 360 l 332 318 q 226 273 260 303 q 193 188 193 243 q 231 99 193 129 q 332 69 268 69 z "},"â":{"ha":761,"x_min":81,"x_max":682,"o":"m 388 867 l 242 757 l 188 811 l 342 924 l 433 924 l 588 811 l 533 757 l 388 867 m 310 -18 q 144 35 207 -18 q 81 183 81 88 q 292 392 81 357 l 468 421 q 549 449 525 431 q 572 506 572 467 q 401 631 572 631 q 207 476 219 631 l 97 476 q 178 653 100 589 q 397 718 256 718 q 604 660 535 718 q 674 506 674 603 l 674 172 q 682 0 674 82 l 581 0 q 571 163 571 104 q 483 35 547 88 q 310 -18 419 -18 m 332 69 q 510 146 447 69 q 572 329 572 222 l 572 389 q 447 342 531 360 l 332 318 q 226 273 260 303 q 193 188 193 243 q 231 99 193 129 q 332 69 268 69 z "},"ã":{"ha":761,"x_min":81,"x_max":682,"o":"m 486 800 q 382 831 450 800 q 299 863 314 863 q 268 832 268 863 l 268 803 l 186 803 l 186 838 q 215 905 186 883 q 289 926 244 926 q 398 895 335 926 q 476 864 461 864 q 507 894 507 864 l 507 924 l 589 924 l 589 888 q 560 822 589 843 q 486 800 531 800 m 310 -18 q 144 35 207 -18 q 81 183 81 88 q 292 392 81 357 l 468 421 q 549 449 525 431 q 572 506 572 467 q 401 631 572 631 q 207 476 219 631 l 97 476 q 178 653 100 589 q 397 718 256 718 q 604 660 535 718 q 674 506 674 603 l 674 172 q 682 0 674 82 l 581 0 q 571 163 571 104 q 483 35 547 88 q 310 -18 419 -18 m 332 69 q 510 146 447 69 q 572 329 572 222 l 572 389 q 447 342 531 360 l 332 318 q 226 273 260 303 q 193 188 193 243 q 231 99 193 129 q 332 69 268 69 z "},"ä":{"ha":761,"x_min":81,"x_max":682,"o":"m 326 924 l 326 808 l 192 808 l 192 924 l 326 924 m 582 924 l 582 808 l 447 808 l 447 924 l 582 924 m 310 -18 q 144 35 207 -18 q 81 183 81 88 q 292 392 81 357 l 468 421 q 549 449 525 431 q 572 506 572 467 q 401 631 572 631 q 207 476 219 631 l 97 476 q 178 653 100 589 q 397 718 256 718 q 604 660 535 718 q 674 506 674 603 l 674 172 q 682 0 674 82 l 581 0 q 571 163 571 104 q 483 35 547 88 q 310 -18 419 -18 m 332 69 q 510 146 447 69 q 572 329 572 222 l 572 389 q 447 342 531 360 l 332 318 q 226 273 260 303 q 193 188 193 243 q 231 99 193 129 q 332 69 268 69 z "},"å":{"ha":761,"x_min":81,"x_max":682,"o":"m 456 802 q 443 789 456 802 q 388 775 431 775 q 319 802 344 775 q 293 868 293 829 q 319 933 293 906 q 388 960 344 960 q 456 933 431 960 q 482 868 482 906 q 456 802 482 829 m 356 901 q 350 895 356 901 q 343 868 343 889 q 356 834 343 847 q 388 821 369 821 q 419 834 406 821 q 432 868 432 847 q 419 901 432 889 q 388 914 406 914 q 356 901 369 914 m 310 -18 q 144 35 207 -18 q 81 183 81 88 q 292 392 81 357 l 468 421 q 549 449 525 431 q 572 506 572 467 q 401 631 572 631 q 207 476 219 631 l 97 476 q 178 653 100 589 q 397 718 256 718 q 604 660 535 718 q 674 506 674 603 l 674 172 q 682 0 674 82 l 581 0 q 571 163 571 104 q 483 35 547 88 q 310 -18 419 -18 m 332 69 q 510 146 447 69 q 572 329 572 222 l 572 389 q 447 342 531 360 l 332 318 q 226 273 260 303 q 193 188 193 243 q 231 99 193 129 q 332 69 268 69 z "},"æ":{"ha":1306,"x_min":81,"x_max":1242,"o":"m 921 63 q 1139 214 1106 63 l 1242 214 q 1151 48 1229 118 q 917 -22 1072 -22 q 613 156 693 -22 q 499 30 575 78 q 321 -18 424 -18 q 149 35 217 -18 q 81 183 81 88 q 292 392 81 357 l 468 421 q 549 449 525 431 q 572 506 572 467 q 401 631 572 631 q 207 476 219 631 l 97 476 q 178 653 100 589 q 397 718 256 718 q 649 597 596 718 q 917 717 742 717 q 1156 622 1069 717 q 1242 371 1242 526 q 1240 322 1242 339 l 681 322 q 921 63 692 63 m 918 632 q 683 406 704 632 l 1133 406 q 918 632 1125 632 m 572 329 l 572 389 q 447 342 531 360 l 332 318 q 226 273 260 303 q 193 188 193 243 q 231 100 193 131 q 332 69 269 69 q 510 145 449 69 q 572 329 572 221 z "},"ç":{"ha":804,"x_min":67,"x_max":746,"o":"m 640 265 l 746 265 q 668 74 740 151 q 468 -19 596 -4 l 496 -125 q 488 -201 508 -175 q 422 -226 467 -226 l 304 -226 l 304 -149 l 414 -149 l 381 -21 q 149 90 231 -11 q 67 347 67 192 q 158 614 67 511 q 414 717 250 717 q 647 642 565 717 q 738 440 729 567 l 633 440 q 418 626 606 626 q 179 347 179 626 q 414 68 179 68 q 572 121 515 68 q 640 265 629 174 z "},"è":{"ha":800,"x_min":67,"x_max":738,"o":"m 276 951 l 568 822 l 550 779 l 243 867 l 276 951 m 415 63 q 635 214 599 63 l 736 214 q 646 48 724 118 q 411 -22 568 -22 q 153 80 240 -22 q 67 349 67 182 q 156 614 67 511 q 411 717 244 717 q 651 622 564 717 q 738 371 738 526 q 735 322 738 339 l 176 322 q 415 63 188 63 m 413 632 q 179 406 200 632 l 629 406 q 413 632 621 632 z "},"é":{"ha":800,"x_min":67,"x_max":738,"o":"m 531 951 l 564 867 l 258 779 l 239 822 l 531 951 m 415 63 q 635 214 599 63 l 736 214 q 646 48 724 118 q 411 -22 568 -22 q 153 80 240 -22 q 67 349 67 182 q 156 614 67 511 q 411 717 244 717 q 651 622 564 717 q 738 371 738 526 q 735 322 738 339 l 176 322 q 415 63 188 63 m 413 632 q 179 406 200 632 l 629 406 q 413 632 621 632 z "},"ê":{"ha":800,"x_min":67,"x_max":738,"o":"m 549 757 l 403 867 l 257 757 l 203 811 l 357 924 l 449 924 l 603 811 l 549 757 m 415 63 q 635 214 599 63 l 736 214 q 646 48 724 118 q 411 -22 568 -22 q 153 80 240 -22 q 67 349 67 182 q 156 614 67 511 q 411 717 244 717 q 651 622 564 717 q 738 371 738 526 q 735 322 738 339 l 176 322 q 415 63 188 63 m 413 632 q 179 406 200 632 l 629 406 q 413 632 621 632 z "},"ë":{"ha":800,"x_min":67,"x_max":738,"o":"m 207 924 l 342 924 l 342 808 l 207 808 l 207 924 m 463 924 l 597 924 l 597 808 l 463 808 l 463 924 m 415 63 q 635 214 599 63 l 736 214 q 646 48 724 118 q 411 -22 568 -22 q 153 80 240 -22 q 67 349 67 182 q 156 614 67 511 q 411 717 244 717 q 651 622 564 717 q 738 371 738 526 q 735 322 738 339 l 176 322 q 415 63 188 63 m 413 632 q 179 406 200 632 l 629 406 q 413 632 621 632 z "},"ì":{"ha":315,"x_min":-1,"x_max":324,"o":"m -1 867 l 32 951 l 324 822 l 306 779 l -1 867 m 213 0 l 101 0 l 101 694 l 213 694 l 213 0 z "},"í":{"ha":315,"x_min":-6,"x_max":319,"o":"m 14 779 l -6 822 l 286 951 l 319 867 l 14 779 m 213 0 l 101 0 l 101 694 l 213 694 l 213 0 z "},"î":{"ha":315,"x_min":-43,"x_max":357,"o":"m 357 811 l 303 757 l 157 867 l 11 757 l -43 811 l 111 924 l 203 924 l 357 811 m 213 0 l 101 0 l 101 694 l 213 694 l 213 0 z "},"ï":{"ha":315,"x_min":-39,"x_max":351,"o":"m -39 808 l -39 924 l 96 924 l 96 808 l -39 808 m 217 808 l 217 924 l 351 924 l 351 808 l 217 808 m 213 0 l 101 0 l 101 694 l 213 694 l 213 0 z "},"ð":{"ha":824,"x_min":68,"x_max":756,"o":"m 631 1021 l 553 933 q 708 740 660 860 q 756 426 756 619 q 669 86 756 194 q 413 -22 582 -22 q 155 78 242 -22 q 68 347 68 179 q 149 616 68 515 q 386 717 229 717 q 649 563 575 717 q 489 863 649 750 l 401 764 l 343 813 l 424 903 q 314 949 372 929 l 354 1028 q 486 974 440 999 l 572 1069 l 631 1021 m 408 68 q 649 347 649 68 q 408 626 649 626 q 235 558 290 626 q 181 347 181 489 q 235 137 181 206 q 408 68 290 68 z "},"ñ":{"ha":814,"x_min":101,"x_max":726,"o":"m 507 800 q 403 831 471 800 q 319 863 335 863 q 289 832 289 863 l 289 803 l 207 803 l 207 838 q 236 905 207 883 q 310 926 265 926 q 419 895 356 926 q 497 864 482 864 q 528 894 528 864 l 528 924 l 610 924 l 610 888 q 581 822 610 843 q 507 800 551 800 m 479 717 q 667 649 607 717 q 726 443 726 581 l 726 0 l 615 0 l 615 431 q 573 580 615 536 q 449 624 531 624 q 213 265 213 624 l 213 0 l 101 0 l 101 694 l 213 694 l 213 511 q 479 717 281 717 z "},"ò":{"ha":832,"x_min":67,"x_max":765,"o":"m 290 951 l 582 822 l 564 779 l 257 867 l 290 951 m 417 -22 q 157 81 247 -22 q 67 349 67 183 q 157 614 67 511 q 417 717 247 717 q 675 614 585 717 q 765 349 765 511 q 675 81 765 185 q 417 -22 585 -22 m 238 559 q 209 525 238 559 q 179 347 179 492 q 238 135 179 203 q 417 68 297 68 q 594 135 536 68 q 653 347 653 203 q 594 559 653 492 q 417 626 536 626 q 238 559 297 626 z "},"ó":{"ha":832,"x_min":67,"x_max":765,"o":"m 578 867 l 272 779 l 253 822 l 544 951 l 578 867 m 417 -22 q 157 81 247 -22 q 67 349 67 183 q 157 614 67 511 q 417 717 247 717 q 675 614 585 717 q 765 349 765 511 q 675 81 765 185 q 417 -22 585 -22 m 238 559 q 209 525 238 559 q 179 347 179 492 q 238 135 179 203 q 417 68 297 68 q 594 135 536 68 q 653 347 653 203 q 594 559 653 492 q 417 626 536 626 q 238 559 297 626 z "},"ô":{"ha":832,"x_min":67,"x_max":765,"o":"m 463 924 l 617 811 l 563 757 l 417 867 l 271 757 l 217 811 l 371 924 l 463 924 m 417 -22 q 157 81 247 -22 q 67 349 67 183 q 157 614 67 511 q 417 717 247 717 q 675 614 585 717 q 765 349 765 511 q 675 81 765 185 q 417 -22 585 -22 m 238 559 q 209 525 238 559 q 179 347 179 492 q 238 135 179 203 q 417 68 297 68 q 594 135 536 68 q 653 347 653 203 q 594 559 653 492 q 417 626 536 626 q 238 559 297 626 z "},"õ":{"ha":832,"x_min":67,"x_max":765,"o":"m 515 800 q 411 831 479 800 q 328 863 343 863 q 297 832 297 863 l 297 803 l 215 803 l 215 838 q 244 905 215 883 q 318 926 274 926 q 427 895 364 926 q 506 864 490 864 q 536 894 536 864 l 536 924 l 618 924 l 618 888 q 589 822 618 843 q 515 800 560 800 m 417 -22 q 157 81 247 -22 q 67 349 67 183 q 157 614 67 511 q 417 717 247 717 q 675 614 585 717 q 765 349 765 511 q 675 81 765 185 q 417 -22 585 -22 m 238 559 q 209 525 238 559 q 179 347 179 492 q 238 135 179 203 q 417 68 297 68 q 594 135 536 68 q 653 347 653 203 q 594 559 653 492 q 417 626 536 626 q 238 559 297 626 z "},"ö":{"ha":832,"x_min":67,"x_max":765,"o":"m 356 808 l 221 808 l 221 924 l 356 924 l 356 808 m 611 808 l 476 808 l 476 924 l 611 924 l 611 808 m 417 -22 q 157 81 247 -22 q 67 349 67 183 q 157 614 67 511 q 417 717 247 717 q 675 614 585 717 q 765 349 765 511 q 675 81 765 185 q 417 -22 585 -22 m 238 559 q 209 525 238 559 q 179 347 179 492 q 238 135 179 203 q 417 68 297 68 q 594 135 536 68 q 653 347 653 203 q 594 559 653 492 q 417 626 536 626 q 238 559 297 626 z "},"÷":{"ha":783,"x_min":93,"x_max":692,"o":"m 451 542 q 440 530 451 542 q 392 518 429 518 q 332 542 354 518 q 310 599 310 565 q 332 655 310 632 q 392 678 354 678 q 451 655 429 678 q 474 599 474 632 q 451 542 474 565 m 93 304 l 93 389 l 692 389 l 692 304 l 93 304 m 451 43 q 440 31 451 43 q 392 19 429 19 q 332 43 354 19 q 310 100 310 67 q 332 156 310 133 q 392 179 354 179 q 451 156 429 179 q 474 100 474 133 q 451 43 474 67 z "},"ø":{"ha":832,"x_min":67,"x_max":765,"o":"m 663 831 l 600 674 q 724 542 682 628 q 765 349 765 457 q 675 81 765 185 q 417 -22 585 -22 q 329 -14 369 -22 l 256 -200 l 171 -171 l 244 15 q 112 146 157 58 q 67 349 67 233 q 157 614 67 511 q 417 717 247 717 q 517 706 468 717 l 578 860 l 663 831 m 179 347 q 278 101 179 163 l 483 621 q 417 626 456 626 q 238 559 297 626 q 179 347 179 492 m 417 68 q 594 135 536 68 q 653 347 653 203 q 565 586 653 522 l 363 72 q 417 68 388 68 z "},"ù":{"ha":813,"x_min":88,"x_max":711,"o":"m 549 779 l 242 867 l 275 951 l 567 822 l 549 779 m 88 251 l 88 694 l 199 694 l 199 264 q 243 112 199 154 q 374 69 288 69 q 541 163 482 69 q 600 429 600 257 l 600 694 l 711 694 l 711 0 l 600 0 l 600 179 q 342 -22 536 -22 q 149 46 211 -22 q 88 251 88 114 z "},"ú":{"ha":813,"x_min":88,"x_max":711,"o":"m 563 867 l 257 779 l 238 822 l 529 951 l 563 867 m 88 251 l 88 694 l 199 694 l 199 264 q 243 112 199 154 q 374 69 288 69 q 541 163 482 69 q 600 429 600 257 l 600 694 l 711 694 l 711 0 l 600 0 l 600 179 q 342 -22 536 -22 q 149 46 211 -22 q 88 251 88 114 z "},"û":{"ha":813,"x_min":88,"x_max":711,"o":"m 354 924 l 446 924 l 600 811 l 546 757 l 400 867 l 254 757 l 200 811 l 354 924 m 88 251 l 88 694 l 199 694 l 199 264 q 243 112 199 154 q 374 69 288 69 q 541 163 482 69 q 600 429 600 257 l 600 694 l 711 694 l 711 0 l 600 0 l 600 179 q 342 -22 536 -22 q 149 46 211 -22 q 88 251 88 114 z "},"ü":{"ha":813,"x_min":88,"x_max":711,"o":"m 339 924 l 339 808 l 204 808 l 204 924 l 339 924 m 594 924 l 594 808 l 460 808 l 460 924 l 594 924 m 88 251 l 88 694 l 199 694 l 199 264 q 243 112 199 154 q 374 69 288 69 q 541 163 482 69 q 600 429 600 257 l 600 694 l 711 694 l 711 0 l 600 0 l 600 179 q 342 -22 536 -22 q 149 46 211 -22 q 88 251 88 114 z "},"ý":{"ha":772,"x_min":39,"x_max":738,"o":"m 514 951 l 547 867 l 242 779 l 222 822 l 514 951 m 413 160 l 628 694 l 738 694 l 411 -115 q 339 -243 375 -208 q 215 -278 303 -278 l 83 -278 l 83 -187 l 276 -187 l 353 0 l 314 0 l 39 694 l 156 694 l 368 160 l 392 93 l 413 160 z "},"þ":{"ha":858,"x_min":99,"x_max":790,"o":"m 472 717 q 710 615 629 717 q 790 347 790 514 q 710 78 790 179 q 472 -22 629 -22 q 210 132 283 -22 l 210 -278 l 99 -278 l 99 972 l 210 972 l 210 561 q 472 717 285 717 m 450 68 q 623 137 568 68 q 678 347 678 206 q 623 558 678 489 q 450 626 568 626 q 210 347 210 626 q 450 68 210 68 z "},"ÿ":{"ha":772,"x_min":39,"x_max":738,"o":"m 190 924 l 325 924 l 325 808 l 190 808 l 190 924 m 446 924 l 581 924 l 581 808 l 446 808 l 446 924 m 413 160 l 628 694 l 738 694 l 411 -115 q 339 -243 375 -208 q 215 -278 303 -278 l 83 -278 l 83 -187 l 276 -187 l 353 0 l 314 0 l 39 694 l 156 694 l 368 160 l 392 93 l 413 160 z "},"Ā":{"ha":971,"x_min":51,"x_max":922,"o":"m 254 1144 l 719 1144 l 719 1060 l 254 1060 l 254 1144 m 922 0 l 806 0 l 715 236 l 257 236 l 167 0 l 51 0 l 401 924 l 572 924 l 922 0 m 486 840 l 292 329 l 681 329 l 486 840 z "},"ā":{"ha":761,"x_min":81,"x_max":682,"o":"m 621 839 l 156 839 l 156 924 l 621 924 l 621 839 m 310 -18 q 144 35 207 -18 q 81 183 81 88 q 292 392 81 357 l 468 421 q 549 449 525 431 q 572 506 572 467 q 401 631 572 631 q 207 476 219 631 l 97 476 q 178 653 100 589 q 397 718 256 718 q 604 660 535 718 q 674 506 674 603 l 674 172 q 682 0 674 82 l 581 0 q 571 163 571 104 q 483 35 547 88 q 310 -18 419 -18 m 332 69 q 510 146 447 69 q 572 329 572 222 l 572 389 q 447 342 531 360 l 332 318 q 226 273 260 303 q 193 188 193 243 q 231 99 193 129 q 332 69 268 69 z "},"Ă":{"ha":971,"x_min":51,"x_max":922,"o":"m 606 1066 q 586 1045 606 1066 q 488 1024 567 1024 q 369 1066 408 1024 q 325 1167 331 1108 l 392 1167 q 488 1090 401 1090 q 583 1167 576 1090 l 651 1167 q 606 1066 646 1108 m 922 0 l 806 0 l 715 236 l 257 236 l 167 0 l 51 0 l 401 924 l 572 924 l 922 0 m 486 840 l 292 329 l 681 329 l 486 840 z "},"ă":{"ha":761,"x_min":81,"x_max":682,"o":"m 225 924 l 292 924 q 388 847 301 847 q 483 924 476 847 l 551 924 q 507 823 546 865 q 388 781 468 781 q 269 823 307 781 q 225 924 231 865 m 310 -18 q 144 35 207 -18 q 81 183 81 88 q 292 392 81 357 l 468 421 q 549 449 525 431 q 572 506 572 467 q 401 631 572 631 q 207 476 219 631 l 97 476 q 178 653 100 589 q 397 718 256 718 q 604 660 535 718 q 674 506 674 603 l 674 172 q 682 0 674 82 l 581 0 q 571 163 571 104 q 483 35 547 88 q 310 -18 419 -18 m 332 69 q 510 146 447 69 q 572 329 572 222 l 572 389 q 447 342 531 360 l 332 318 q 226 273 260 303 q 193 188 193 243 q 231 99 193 129 q 332 69 268 69 z "},"Ą":{"ha":971,"x_min":51,"x_max":963,"o":"m 890 -144 q 963 -133 928 -144 l 963 -211 q 883 -226 928 -226 q 761 -187 807 -226 q 715 -79 715 -149 q 785 54 715 3 l 715 236 l 257 236 l 167 0 l 51 0 l 401 924 l 572 924 l 922 0 l 814 0 q 799 -62 799 -28 q 824 -124 799 -103 q 890 -144 850 -144 m 486 840 l 292 329 l 681 329 l 486 840 z "},"ą":{"ha":761,"x_min":81,"x_max":772,"o":"m 700 -144 q 772 -133 738 -144 l 772 -211 q 693 -226 738 -226 q 571 -187 617 -226 q 525 -79 525 -149 q 576 40 525 -8 q 571 163 571 126 q 483 35 547 88 q 310 -18 419 -18 q 144 35 207 -18 q 81 183 81 88 q 292 392 81 357 l 468 421 q 549 449 525 431 q 572 506 572 467 q 401 631 572 631 q 207 476 219 631 l 97 476 q 178 653 100 589 q 397 718 256 718 q 604 660 535 718 q 674 506 674 603 l 674 172 q 682 0 674 82 l 624 0 q 608 -62 608 -28 q 634 -124 608 -103 q 700 -144 660 -144 m 572 329 l 572 389 q 447 342 531 360 l 332 318 q 226 273 260 303 q 193 188 193 243 q 231 99 193 129 q 332 69 268 69 q 510 146 447 69 q 572 329 572 222 z "},"Ć":{"ha":1050,"x_min":76,"x_max":981,"o":"m 361 1047 l 653 1176 l 686 1092 l 381 1004 l 361 1047 m 538 -24 q 192 109 308 -24 q 76 463 76 242 q 194 815 76 682 q 540 949 311 949 q 976 579 940 949 l 860 579 q 538 853 831 853 q 197 463 197 853 q 535 72 197 72 q 771 149 689 72 q 863 368 853 225 l 981 368 q 860 80 968 183 q 538 -24 751 -24 z "},"ć":{"ha":804,"x_min":67,"x_max":746,"o":"m 240 822 l 532 951 l 565 867 l 260 779 l 240 822 m 67 347 q 158 614 67 511 q 414 717 250 717 q 647 642 565 717 q 738 440 729 567 l 633 440 q 418 626 606 626 q 179 347 179 626 q 414 68 179 68 q 572 121 515 68 q 640 265 629 174 l 746 265 q 653 58 739 139 q 414 -22 567 -22 q 158 80 249 -22 q 67 347 67 182 z "},"Ċ":{"ha":1050,"x_min":76,"x_max":981,"o":"m 596 1140 l 596 1025 l 453 1025 l 453 1140 l 596 1140 m 538 -24 q 192 109 308 -24 q 76 463 76 242 q 194 815 76 682 q 540 949 311 949 q 976 579 940 949 l 860 579 q 538 853 831 853 q 197 463 197 853 q 535 72 197 72 q 771 149 689 72 q 863 368 853 225 l 981 368 q 860 80 968 183 q 538 -24 751 -24 z "},"ċ":{"ha":804,"x_min":67,"x_max":746,"o":"m 474 924 l 474 808 l 331 808 l 331 924 l 474 924 m 67 347 q 158 614 67 511 q 414 717 250 717 q 647 642 565 717 q 738 440 729 567 l 633 440 q 418 626 606 626 q 179 347 179 626 q 414 68 179 68 q 572 121 515 68 q 640 265 629 174 l 746 265 q 653 58 739 139 q 414 -22 567 -22 q 158 80 249 -22 q 67 347 67 182 z "},"Č":{"ha":1050,"x_min":76,"x_max":981,"o":"m 724 1132 l 569 1019 l 478 1019 l 324 1132 l 378 1186 l 524 1076 l 669 1186 l 724 1132 m 538 -24 q 192 109 308 -24 q 76 463 76 242 q 194 815 76 682 q 540 949 311 949 q 976 579 940 949 l 860 579 q 538 853 831 853 q 197 463 197 853 q 535 72 197 72 q 771 149 689 72 q 863 368 853 225 l 981 368 q 860 80 968 183 q 538 -24 751 -24 z "},"č":{"ha":804,"x_min":67,"x_max":746,"o":"m 603 889 l 449 778 l 357 778 l 203 889 l 257 944 l 403 833 l 549 944 l 603 889 m 67 347 q 158 614 67 511 q 414 717 250 717 q 647 642 565 717 q 738 440 729 567 l 633 440 q 418 626 606 626 q 179 347 179 626 q 414 68 179 68 q 572 121 515 68 q 640 265 629 174 l 746 265 q 653 58 739 139 q 414 -22 567 -22 q 158 80 249 -22 q 67 347 67 182 z "},"Ď":{"ha":978,"x_min":94,"x_max":908,"o":"m 689 1132 l 535 1019 l 443 1019 l 289 1132 l 343 1186 l 489 1076 l 635 1186 l 689 1132 m 478 924 q 801 795 693 924 q 908 464 908 667 q 801 130 908 260 q 478 0 693 0 l 94 0 l 94 924 l 478 924 m 210 93 l 457 93 q 711 186 635 93 q 788 464 788 279 q 712 739 788 647 q 457 831 636 831 l 210 831 l 210 93 z "},"ď":{"ha":1007,"x_min":68,"x_max":978,"o":"m 872 781 l 858 1069 l 978 1069 l 964 781 l 872 781 m 649 563 l 649 972 l 760 972 l 760 0 l 649 0 l 649 133 q 386 -22 574 -22 q 149 79 229 -22 q 68 347 68 181 q 149 616 68 515 q 386 717 229 717 q 649 563 575 717 m 408 68 q 649 347 649 68 q 408 626 649 626 q 235 558 290 626 q 181 347 181 489 q 235 137 181 206 q 408 68 290 68 z "},"Đ":{"ha":1093,"x_min":46,"x_max":1024,"o":"m 593 924 q 788 888 704 924 q 923 788 872 851 q 999 642 974 724 q 1024 464 1024 561 q 917 130 1024 260 q 593 0 810 0 l 211 0 l 211 411 l 46 411 l 46 504 l 211 504 l 211 924 l 593 924 m 325 93 l 574 93 q 827 186 751 93 q 903 464 903 279 q 827 739 903 647 q 574 831 751 831 l 325 831 l 325 504 l 601 504 l 601 411 l 325 411 l 325 93 z "},"đ":{"ha":892,"x_min":68,"x_max":892,"o":"m 760 882 l 892 882 l 892 800 l 760 800 l 760 0 l 649 0 l 649 133 q 386 -22 574 -22 q 149 79 229 -22 q 68 347 68 181 q 149 616 68 515 q 386 717 229 717 q 649 563 575 717 l 649 800 l 397 800 l 397 882 l 649 882 l 649 972 l 760 972 l 760 882 m 408 68 q 649 347 649 68 q 408 626 649 626 q 235 558 290 626 q 181 347 181 489 q 235 137 181 206 q 408 68 290 68 z "},"Ē":{"ha":869,"x_min":94,"x_max":782,"o":"m 192 1144 l 657 1144 l 657 1060 l 192 1060 l 192 1144 m 210 429 l 210 93 l 782 93 l 782 0 l 94 0 l 94 924 l 778 924 l 778 831 l 210 831 l 210 521 l 736 521 l 736 429 l 210 429 z "},"ē":{"ha":800,"x_min":67,"x_max":738,"o":"m 169 924 l 635 924 l 635 839 l 169 839 l 169 924 m 415 63 q 635 214 599 63 l 736 214 q 646 48 724 118 q 411 -22 568 -22 q 153 80 240 -22 q 67 349 67 182 q 156 614 67 511 q 411 717 244 717 q 651 622 564 717 q 738 371 738 526 q 735 322 738 339 l 176 322 q 415 63 188 63 m 413 632 q 179 406 200 632 l 629 406 q 413 632 621 632 z "},"Ė":{"ha":869,"x_min":94,"x_max":782,"o":"m 353 1140 l 496 1140 l 496 1025 l 353 1025 l 353 1140 m 210 429 l 210 93 l 782 93 l 782 0 l 94 0 l 94 924 l 778 924 l 778 831 l 210 831 l 210 521 l 736 521 l 736 429 l 210 429 z "},"ė":{"ha":800,"x_min":67,"x_max":738,"o":"m 331 924 l 474 924 l 474 808 l 331 808 l 331 924 m 415 63 q 635 214 599 63 l 736 214 q 646 48 724 118 q 411 -22 568 -22 q 153 80 240 -22 q 67 349 67 182 q 156 614 67 511 q 411 717 244 717 q 651 622 564 717 q 738 371 738 526 q 735 322 738 339 l 176 322 q 415 63 188 63 m 413 632 q 179 406 200 632 l 629 406 q 413 632 621 632 z "},"Ę":{"ha":869,"x_min":94,"x_max":783,"o":"m 711 -144 q 783 -133 749 -144 l 783 -211 q 704 -226 749 -226 q 582 -187 628 -226 q 536 -79 536 -149 q 557 0 536 -37 l 94 0 l 94 924 l 778 924 l 778 831 l 210 831 l 210 521 l 736 521 l 736 429 l 210 429 l 210 93 l 782 93 l 782 0 l 635 0 q 619 -62 619 -28 q 645 -124 619 -103 q 711 -144 671 -144 z "},"ę":{"ha":800,"x_min":67,"x_max":738,"o":"m 574 -62 q 599 -124 574 -103 q 665 -144 625 -144 q 738 -133 703 -144 l 738 -211 q 658 -226 703 -226 q 536 -187 582 -226 q 490 -79 490 -149 q 503 -14 490 -49 q 411 -22 464 -22 q 153 80 240 -22 q 67 349 67 182 q 156 614 67 511 q 411 717 244 717 q 651 622 564 717 q 738 371 738 526 q 735 322 738 339 l 176 322 q 415 63 188 63 q 635 214 599 63 l 736 214 q 600 18 717 79 q 574 -62 574 -17 m 413 632 q 179 406 200 632 l 629 406 q 413 632 621 632 z "},"Ě":{"ha":869,"x_min":94,"x_max":782,"o":"m 624 1132 l 469 1019 l 378 1019 l 224 1132 l 278 1186 l 424 1076 l 569 1186 l 624 1132 m 210 429 l 210 93 l 782 93 l 782 0 l 94 0 l 94 924 l 778 924 l 778 831 l 210 831 l 210 521 l 736 521 l 736 429 l 210 429 z "},"ě":{"ha":800,"x_min":67,"x_max":738,"o":"m 603 889 l 449 778 l 357 778 l 203 889 l 257 944 l 403 833 l 549 944 l 603 889 m 415 63 q 635 214 599 63 l 736 214 q 646 48 724 118 q 411 -22 568 -22 q 153 80 240 -22 q 67 349 67 182 q 156 614 67 511 q 411 717 244 717 q 651 622 564 717 q 738 371 738 526 q 735 322 738 339 l 176 322 q 415 63 188 63 m 413 632 q 179 406 200 632 l 629 406 q 413 632 621 632 z "},"Ğ":{"ha":1085,"x_min":76,"x_max":985,"o":"m 371 1167 l 438 1167 q 533 1090 447 1090 q 629 1167 622 1090 l 697 1167 q 652 1066 692 1108 q 533 1024 613 1024 q 415 1066 454 1024 q 371 1167 376 1108 m 524 -24 q 190 109 303 -24 q 76 463 76 242 q 195 815 76 682 q 544 949 314 949 q 985 593 944 949 l 865 593 q 770 790 847 728 q 540 853 693 853 q 281 756 365 853 q 197 463 197 660 q 281 169 197 267 q 540 72 364 72 q 871 369 825 72 l 454 369 l 454 456 l 983 456 l 983 1 l 879 1 l 879 226 q 759 46 846 115 q 524 -24 672 -24 z "},"ğ":{"ha":856,"x_min":67,"x_max":757,"o":"m 547 823 q 528 802 547 823 q 428 781 508 781 q 309 823 347 781 q 265 924 271 865 l 332 924 q 428 847 342 847 q 524 924 517 847 l 592 924 q 547 823 586 865 m 646 575 l 646 694 l 757 694 l 757 -1 q 677 -219 757 -146 q 414 -293 597 -293 q 176 -228 260 -293 q 83 -44 93 -164 l 193 -44 q 414 -206 208 -206 q 592 -158 538 -206 q 646 0 646 -111 l 646 150 q 388 15 575 15 q 147 108 228 15 q 67 365 67 200 q 147 622 67 529 q 388 714 228 714 q 646 575 572 714 m 414 103 q 587 165 528 103 q 646 365 646 228 q 587 564 646 501 q 414 626 528 626 q 237 565 293 626 q 181 365 181 504 q 237 165 181 226 q 414 103 293 103 z "},"Ġ":{"ha":1085,"x_min":76,"x_max":985,"o":"m 461 1025 l 461 1140 l 604 1140 l 604 1025 l 461 1025 m 524 -24 q 190 109 303 -24 q 76 463 76 242 q 195 815 76 682 q 544 949 314 949 q 985 593 944 949 l 865 593 q 770 790 847 728 q 540 853 693 853 q 281 756 365 853 q 197 463 197 660 q 281 169 197 267 q 540 72 364 72 q 871 369 825 72 l 454 369 l 454 456 l 983 456 l 983 1 l 879 1 l 879 226 q 759 46 846 115 q 524 -24 672 -24 z "},"ġ":{"ha":856,"x_min":67,"x_max":757,"o":"m 356 924 l 499 924 l 499 808 l 356 808 l 356 924 m 646 575 l 646 694 l 757 694 l 757 -1 q 677 -219 757 -146 q 414 -293 597 -293 q 176 -228 260 -293 q 83 -44 93 -164 l 193 -44 q 414 -206 208 -206 q 592 -158 538 -206 q 646 0 646 -111 l 646 150 q 388 15 575 15 q 147 108 228 15 q 67 365 67 200 q 147 622 67 529 q 388 714 228 714 q 646 575 572 714 m 414 103 q 587 165 528 103 q 646 365 646 228 q 587 564 646 501 q 414 626 528 626 q 237 565 293 626 q 181 365 181 504 q 237 165 181 226 q 414 103 293 103 z "},"Ģ":{"ha":1085,"x_min":76,"x_max":985,"o":"m 524 -24 q 190 109 303 -24 q 76 463 76 242 q 195 815 76 682 q 544 949 314 949 q 985 593 944 949 l 865 593 q 770 790 847 728 q 540 853 693 853 q 281 756 365 853 q 197 463 197 660 q 281 169 197 267 q 540 72 364 72 q 871 369 825 72 l 454 369 l 454 456 l 983 456 l 983 1 l 879 1 l 879 226 q 759 46 846 115 q 524 -24 672 -24 m 532 -194 l 461 -194 l 461 -78 l 606 -78 l 606 -281 q 578 -362 606 -337 q 492 -386 551 -386 l 461 -386 l 461 -314 l 532 -314 l 532 -194 z "},"ģ":{"ha":856,"x_min":67,"x_max":757,"o":"m 428 903 l 499 903 l 499 786 l 356 786 l 356 989 q 383 1070 356 1046 q 469 1094 410 1094 l 499 1094 l 499 1022 l 428 1022 l 428 903 m 646 575 l 646 694 l 757 694 l 757 -1 q 677 -219 757 -146 q 414 -293 597 -293 q 176 -228 260 -293 q 83 -44 93 -164 l 193 -44 q 414 -206 208 -206 q 592 -158 538 -206 q 646 0 646 -111 l 646 150 q 388 15 575 15 q 147 108 228 15 q 67 365 67 200 q 147 622 67 529 q 388 714 228 714 q 646 575 572 714 m 414 103 q 587 165 528 103 q 646 365 646 228 q 587 564 646 501 q 414 626 528 626 q 237 565 293 626 q 181 365 181 504 q 237 165 181 226 q 414 103 293 103 z "},"Ħ":{"ha":1136,"x_min":46,"x_max":1089,"o":"m 946 782 l 1089 782 l 1089 689 l 946 689 l 946 0 l 831 0 l 831 431 l 293 431 l 293 0 l 179 0 l 179 689 l 46 689 l 46 782 l 179 782 l 179 924 l 293 924 l 293 782 l 831 782 l 831 924 l 946 924 l 946 782 m 293 524 l 831 524 l 831 689 l 293 689 l 293 524 z "},"ħ":{"ha":846,"x_min":0,"x_max":757,"o":"m 510 717 q 697 649 638 717 q 757 443 757 581 l 757 0 l 646 0 l 646 431 q 603 580 646 536 q 479 624 561 624 q 244 265 244 624 l 244 0 l 133 0 l 133 800 l 0 800 l 0 882 l 133 882 l 133 972 l 244 972 l 244 882 l 496 882 l 496 800 l 244 800 l 244 511 q 510 717 311 717 z "},"Ī":{"ha":692,"x_min":93,"x_max":599,"o":"m 113 1144 l 578 1144 l 578 1060 l 113 1060 l 113 1144 m 599 924 l 599 831 l 403 831 l 403 93 l 599 93 l 599 0 l 93 0 l 93 93 l 289 93 l 289 831 l 93 831 l 93 924 l 599 924 z "},"ī":{"ha":315,"x_min":-75,"x_max":390,"o":"m -75 924 l 390 924 l 390 839 l -75 839 l -75 924 m 213 0 l 101 0 l 101 694 l 213 694 l 213 0 z "},"Į":{"ha":692,"x_min":93,"x_max":621,"o":"m 549 -144 q 621 -133 586 -144 l 621 -211 q 542 -226 586 -226 q 419 -187 465 -226 q 374 -79 374 -149 q 394 0 374 -37 l 93 0 l 93 93 l 289 93 l 289 831 l 93 831 l 93 924 l 599 924 l 599 831 l 403 831 l 403 93 l 599 93 l 599 0 l 472 0 q 457 -62 457 -28 q 483 -124 457 -103 q 549 -144 508 -144 z "},"į":{"ha":315,"x_min":56,"x_max":303,"o":"m 86 924 l 229 924 l 229 808 l 86 808 l 86 924 m 231 -144 q 303 -133 268 -144 l 303 -211 q 224 -226 268 -226 q 101 -187 147 -226 q 56 -79 56 -149 q 101 33 56 -12 l 101 694 l 213 694 l 213 0 l 154 0 q 139 -62 139 -28 q 165 -124 139 -103 q 231 -144 190 -144 z "},"İ":{"ha":692,"x_min":93,"x_max":599,"o":"m 274 1140 l 417 1140 l 417 1025 l 274 1025 l 274 1140 m 599 924 l 599 831 l 403 831 l 403 93 l 599 93 l 599 0 l 93 0 l 93 93 l 289 93 l 289 831 l 93 831 l 93 924 l 599 924 z "},"ı":{"ha":315,"x_min":101,"x_max":213,"o":"m 213 0 l 101 0 l 101 694 l 213 694 l 213 0 z "},"Ķ":{"ha":926,"x_min":94,"x_max":861,"o":"m 839 924 l 474 532 l 861 6 l 861 0 l 721 0 l 396 450 l 210 250 l 210 0 l 94 0 l 94 924 l 210 924 l 210 399 l 688 924 l 839 924 m 463 -194 l 392 -194 l 392 -78 l 536 -78 l 536 -281 q 509 -362 536 -337 q 422 -386 482 -386 l 392 -386 l 392 -314 l 463 -314 l 463 -194 z "},"ķ":{"ha":789,"x_min":101,"x_max":758,"o":"m 729 692 l 425 401 l 758 0 l 618 0 l 356 335 l 213 199 l 213 0 l 101 0 l 101 972 l 213 972 l 213 322 q 279 394 242 360 l 592 694 l 729 694 l 729 692 m 393 -194 l 322 -194 l 322 -78 l 467 -78 l 467 -281 q 440 -362 467 -337 q 353 -386 413 -386 l 322 -386 l 322 -314 l 393 -314 l 393 -194 z "},"Ĺ":{"ha":724,"x_min":-10,"x_max":693,"o":"m -10 1047 l 282 1176 l 315 1092 l 10 1004 l -10 1047 m 210 924 l 210 93 l 693 93 l 693 0 l 94 0 l 94 924 l 210 924 z "},"ĺ":{"ha":311,"x_min":-7,"x_max":318,"o":"m 285 1225 l 318 1140 l 13 1053 l -7 1096 l 285 1225 m 211 0 l 100 0 l 100 972 l 211 972 l 211 0 z "},"Ļ":{"ha":724,"x_min":94,"x_max":693,"o":"m 210 924 l 210 93 l 693 93 l 693 0 l 94 0 l 94 924 l 210 924 m 374 -194 l 303 -194 l 303 -78 l 447 -78 l 447 -281 q 420 -362 447 -337 q 333 -386 393 -386 l 303 -386 l 303 -314 l 374 -314 l 374 -194 z "},"ļ":{"ha":311,"x_min":83,"x_max":228,"o":"m 211 0 l 100 0 l 100 972 l 211 972 l 211 0 m 154 -194 l 83 -194 l 83 -78 l 228 -78 l 228 -281 q 201 -362 228 -337 q 114 -386 174 -386 l 83 -386 l 83 -314 l 154 -314 l 154 -194 z "},"Ľ":{"ha":724,"x_min":94,"x_max":693,"o":"m 489 1069 l 475 781 l 385 781 l 371 1069 l 489 1069 m 210 924 l 210 93 l 693 93 l 693 0 l 94 0 l 94 924 l 210 924 z "},"ľ":{"ha":458,"x_min":100,"x_max":431,"o":"m 325 781 l 311 1069 l 431 1069 l 417 781 l 325 781 m 211 0 l 100 0 l 100 972 l 211 972 l 211 0 z "},"Ł":{"ha":833,"x_min":46,"x_max":803,"o":"m 319 419 l 319 93 l 803 93 l 803 0 l 206 0 l 206 375 l 46 314 l 46 408 l 206 471 l 206 924 l 319 924 l 319 514 l 601 624 l 601 528 l 319 419 z "},"ł":{"ha":546,"x_min":46,"x_max":500,"o":"m 329 539 l 500 610 l 500 514 l 329 444 l 329 0 l 218 0 l 218 399 l 46 328 l 46 422 l 218 493 l 218 972 l 329 972 l 329 539 z "},"Ń":{"ha":976,"x_min":94,"x_max":881,"o":"m 617 1176 l 650 1092 l 344 1004 l 325 1047 l 617 1176 m 767 78 l 767 924 l 881 924 l 881 0 l 688 0 l 268 725 q 210 846 233 792 l 210 0 l 94 0 l 94 924 l 289 924 l 708 197 q 767 78 736 147 z "},"ń":{"ha":814,"x_min":101,"x_max":726,"o":"m 536 951 l 569 867 l 264 779 l 244 822 l 536 951 m 479 717 q 667 649 607 717 q 726 443 726 581 l 726 0 l 615 0 l 615 431 q 573 580 615 536 q 449 624 531 624 q 213 265 213 624 l 213 0 l 101 0 l 101 694 l 213 694 l 213 511 q 479 717 281 717 z "},"Ņ":{"ha":976,"x_min":94,"x_max":881,"o":"m 767 78 l 767 924 l 881 924 l 881 0 l 688 0 l 268 725 q 210 846 233 792 l 210 0 l 94 0 l 94 924 l 289 924 l 708 197 q 767 78 736 147 m 488 -194 l 417 -194 l 417 -78 l 561 -78 l 561 -281 q 534 -362 561 -337 q 447 -386 507 -386 l 417 -386 l 417 -314 l 488 -314 l 488 -194 z "},"ņ":{"ha":814,"x_min":101,"x_max":726,"o":"m 479 717 q 667 649 607 717 q 726 443 726 581 l 726 0 l 615 0 l 615 431 q 573 580 615 536 q 449 624 531 624 q 213 265 213 624 l 213 0 l 101 0 l 101 694 l 213 694 l 213 511 q 479 717 281 717 m 407 -194 l 336 -194 l 336 -78 l 481 -78 l 481 -281 q 453 -362 481 -337 q 367 -386 426 -386 l 336 -386 l 336 -314 l 407 -314 l 407 -194 z "},"Ň":{"ha":976,"x_min":94,"x_max":881,"o":"m 689 1132 l 535 1019 l 443 1019 l 289 1132 l 343 1186 l 489 1076 l 635 1186 l 689 1132 m 767 78 l 767 924 l 881 924 l 881 0 l 688 0 l 268 725 q 210 846 233 792 l 210 0 l 94 0 l 94 924 l 289 924 l 708 197 q 767 78 736 147 z "},"ň":{"ha":814,"x_min":101,"x_max":726,"o":"m 263 944 l 408 833 l 554 944 l 608 889 l 454 778 l 363 778 l 208 889 l 263 944 m 479 717 q 667 649 607 717 q 726 443 726 581 l 726 0 l 615 0 l 615 431 q 573 580 615 536 q 449 624 531 624 q 213 265 213 624 l 213 0 l 101 0 l 101 694 l 213 694 l 213 511 q 479 717 281 717 z "},"Ŋ":{"ha":976,"x_min":94,"x_max":881,"o":"m 767 78 l 767 924 l 881 924 l 881 -115 q 845 -240 881 -203 q 714 -278 810 -278 l 550 -278 l 550 -187 l 767 -187 l 767 0 l 688 0 l 268 725 q 210 846 233 792 l 210 0 l 94 0 l 94 924 l 289 924 l 708 197 q 767 78 736 147 z "},"ŋ":{"ha":814,"x_min":101,"x_max":726,"o":"m 474 717 q 665 649 604 717 q 726 443 726 581 l 726 -115 q 690 -240 726 -203 q 558 -278 654 -278 l 396 -278 l 396 -187 l 615 -187 l 615 431 q 572 581 615 538 q 442 624 528 624 q 213 265 213 624 l 213 0 l 101 0 l 101 694 l 213 694 l 213 517 q 474 717 281 717 z "},"Ō":{"ha":1074,"x_min":76,"x_max":997,"o":"m 304 1060 l 304 1144 l 769 1144 l 769 1060 l 304 1060 m 882 110 q 824 43 882 110 q 536 -24 767 -24 q 191 109 306 -24 q 76 463 76 242 q 191 815 76 681 q 536 949 306 949 q 743 912 653 949 q 888 808 833 875 q 969 654 942 742 q 997 463 997 567 q 882 110 997 243 m 279 756 q 238 708 279 756 q 197 463 197 660 q 279 169 197 265 q 536 72 361 72 q 794 169 711 72 q 876 463 876 265 q 794 756 876 660 q 536 853 711 853 q 279 756 361 853 z "},"ō":{"ha":832,"x_min":67,"x_max":765,"o":"m 183 839 l 183 924 l 649 924 l 649 839 l 183 839 m 417 -22 q 157 81 247 -22 q 67 349 67 183 q 157 614 67 511 q 417 717 247 717 q 675 614 585 717 q 765 349 765 511 q 675 81 765 185 q 417 -22 585 -22 m 238 559 q 209 525 238 559 q 179 347 179 492 q 238 135 179 203 q 417 68 297 68 q 594 135 536 68 q 653 347 653 203 q 594 559 653 492 q 417 626 536 626 q 238 559 297 626 z "},"Ő":{"ha":1074,"x_min":76,"x_max":997,"o":"m 331 1047 l 503 1208 l 563 1140 l 360 1015 l 331 1047 m 582 1047 l 754 1208 l 814 1140 l 613 1015 l 582 1047 m 882 110 q 824 43 882 110 q 536 -24 767 -24 q 191 109 306 -24 q 76 463 76 242 q 191 815 76 681 q 536 949 306 949 q 743 912 653 949 q 888 808 833 875 q 969 654 942 742 q 997 463 997 567 q 882 110 997 243 m 279 756 q 238 708 279 756 q 197 463 197 660 q 279 169 197 265 q 536 72 361 72 q 794 169 711 72 q 876 463 876 265 q 794 756 876 660 q 536 853 711 853 q 279 756 361 853 z "},"ő":{"ha":832,"x_min":67,"x_max":765,"o":"m 197 814 l 368 975 l 429 907 l 226 782 l 197 814 m 449 814 l 621 975 l 681 907 l 478 782 l 449 814 m 417 -22 q 157 81 247 -22 q 67 349 67 183 q 157 614 67 511 q 417 717 247 717 q 675 614 585 717 q 765 349 765 511 q 675 81 765 185 q 417 -22 585 -22 m 238 559 q 209 525 238 559 q 179 347 179 492 q 238 135 179 203 q 417 68 297 68 q 594 135 536 68 q 653 347 653 203 q 594 559 653 492 q 417 626 536 626 q 238 559 297 626 z "},"Œ":{"ha":1654,"x_min":76,"x_max":1568,"o":"m 996 429 l 996 93 l 1568 93 l 1568 0 l 881 0 l 881 154 q 528 -24 782 -24 q 190 109 303 -24 q 76 463 76 242 q 190 815 76 681 q 528 949 303 949 q 881 769 781 949 l 881 924 l 1564 924 l 1564 831 l 996 831 l 996 521 l 1522 521 l 1522 429 l 996 429 m 279 169 q 320 120 279 169 q 536 72 361 72 q 794 169 711 72 q 876 463 876 265 q 794 756 876 660 q 536 853 711 853 q 279 756 361 853 q 197 463 197 660 q 279 169 197 265 z "},"œ":{"ha":1375,"x_min":67,"x_max":1313,"o":"m 990 63 q 1210 214 1176 63 l 1313 214 q 1221 48 1299 118 q 988 -22 1143 -22 q 700 136 779 -22 q 417 -22 621 -22 q 157 81 247 -22 q 67 349 67 183 q 157 614 67 511 q 417 717 247 717 q 701 557 622 717 q 988 717 781 717 q 1226 622 1140 717 q 1313 371 1313 526 q 1310 322 1313 339 l 751 322 q 990 63 763 63 m 988 632 q 754 406 775 632 l 1204 406 q 988 632 1196 632 m 238 135 q 268 102 238 135 q 417 68 297 68 q 594 135 536 68 q 653 347 653 203 q 594 559 653 492 q 417 626 536 626 q 238 559 297 626 q 179 347 179 492 q 238 135 179 203 z "},"Ŕ":{"ha":899,"x_min":94,"x_max":808,"o":"m 575 1176 l 608 1092 l 303 1004 l 283 1047 l 575 1176 m 779 244 l 779 147 q 797 0 779 75 l 685 0 q 668 143 668 53 l 668 228 q 469 414 668 414 l 210 414 l 210 0 l 94 0 l 94 924 l 525 924 q 737 859 665 924 q 808 681 808 794 q 758 528 808 590 q 629 447 708 465 q 742 383 704 426 q 779 244 779 339 m 210 500 l 511 500 q 688 671 688 500 q 513 831 688 831 l 210 831 l 210 500 z "},"ŕ":{"ha":535,"x_min":101,"x_max":492,"o":"m 104 822 l 396 951 l 429 867 l 124 779 l 104 822 m 467 704 l 492 704 l 492 594 l 463 594 q 266 510 319 599 q 213 256 213 421 l 213 0 l 101 0 l 101 694 l 213 694 l 213 507 q 467 704 279 704 z "},"Ŗ":{"ha":899,"x_min":94,"x_max":808,"o":"m 779 244 l 779 147 q 797 0 779 75 l 685 0 q 668 143 668 53 l 668 228 q 469 414 668 414 l 210 414 l 210 0 l 94 0 l 94 924 l 525 924 q 737 859 665 924 q 808 681 808 794 q 758 528 808 590 q 629 447 708 465 q 742 383 704 426 q 779 244 779 339 m 210 500 l 511 500 q 688 671 688 500 q 513 831 688 831 l 210 831 l 210 500 m 446 -194 l 375 -194 l 375 -78 l 519 -78 l 519 -281 q 492 -362 519 -337 q 406 -386 465 -386 l 375 -386 l 375 -314 l 446 -314 l 446 -194 z "},"ŗ":{"ha":535,"x_min":85,"x_max":492,"o":"m 467 704 l 492 704 l 492 594 l 463 594 q 266 510 319 599 q 213 256 213 421 l 213 0 l 101 0 l 101 694 l 213 694 l 213 507 q 467 704 279 704 m 156 -194 l 85 -194 l 85 -78 l 229 -78 l 229 -281 q 202 -362 229 -337 q 115 -386 175 -386 l 85 -386 l 85 -314 l 156 -314 l 156 -194 z "},"Ř":{"ha":899,"x_min":94,"x_max":808,"o":"m 647 1132 l 493 1019 l 401 1019 l 247 1132 l 301 1186 l 447 1076 l 593 1186 l 647 1132 m 779 244 l 779 147 q 797 0 779 75 l 685 0 q 668 143 668 53 l 668 228 q 469 414 668 414 l 210 414 l 210 0 l 94 0 l 94 924 l 525 924 q 737 859 665 924 q 808 681 808 794 q 758 528 808 590 q 629 447 708 465 q 742 383 704 426 q 779 244 779 339 m 210 500 l 511 500 q 688 671 688 500 q 513 831 688 831 l 210 831 l 210 500 z "},"ř":{"ha":535,"x_min":67,"x_max":492,"o":"m 221 778 l 67 889 l 121 944 l 267 833 l 413 944 l 467 889 l 313 778 l 221 778 m 467 704 l 492 704 l 492 594 l 463 594 q 266 510 319 599 q 213 256 213 421 l 213 0 l 101 0 l 101 694 l 213 694 l 213 507 q 467 704 279 704 z "},"Ś":{"ha":914,"x_min":72,"x_max":840,"o":"m 619 1092 l 314 1004 l 294 1047 l 586 1176 l 619 1092 m 72 317 l 185 317 q 475 69 189 69 q 667 113 611 69 q 724 242 724 157 q 683 353 724 314 q 556 407 643 392 l 338 440 q 160 518 218 458 q 103 682 103 578 q 192 874 103 800 q 454 949 282 949 q 724 868 629 949 q 828 649 818 788 l 717 649 q 453 858 696 858 q 277 812 335 858 q 219 685 219 765 q 358 539 219 561 l 589 504 q 778 424 715 483 q 840 257 840 365 q 475 -21 840 -21 q 168 73 264 -21 q 72 317 72 167 z "},"ś":{"ha":717,"x_min":53,"x_max":657,"o":"m 481 951 l 514 867 l 208 779 l 189 822 l 481 951 m 53 232 l 156 232 q 376 63 171 63 q 547 183 547 63 q 421 299 547 281 l 260 322 q 71 510 71 349 q 144 663 71 607 q 349 718 218 718 q 559 657 482 718 q 643 496 636 596 l 533 496 q 482 594 528 556 q 346 633 436 633 q 179 518 179 633 q 292 415 179 432 l 439 394 q 606 327 556 378 q 657 189 657 276 q 374 -22 657 -22 q 133 47 211 -22 q 53 232 56 115 z "},"Ş":{"ha":914,"x_min":72,"x_max":840,"o":"m 840 257 q 522 -19 840 -4 l 550 -125 q 542 -201 563 -175 q 476 -226 521 -226 l 358 -226 l 358 -149 l 468 -149 l 435 -19 q 265 13 338 -15 q 152 89 193 42 q 92 192 111 136 q 72 317 72 249 l 185 317 q 475 69 189 69 q 667 113 611 69 q 724 242 724 157 q 683 353 724 314 q 556 407 643 392 l 338 440 q 160 518 218 458 q 103 682 103 578 q 192 874 103 800 q 454 949 282 949 q 724 868 629 949 q 828 649 818 788 l 717 649 q 453 858 696 858 q 277 812 335 858 q 219 685 219 765 q 358 539 219 561 l 589 504 q 778 424 715 483 q 840 257 840 365 z "},"ş":{"ha":717,"x_min":53,"x_max":657,"o":"m 657 189 q 417 -21 657 -6 l 444 -125 q 436 -201 457 -175 q 371 -226 415 -226 l 253 -226 l 253 -149 l 363 -149 l 329 -21 q 123 56 190 -11 q 53 232 56 124 l 156 232 q 376 63 171 63 q 547 183 547 63 q 421 299 547 281 l 260 322 q 71 510 71 349 q 144 663 71 607 q 349 718 218 718 q 559 657 482 718 q 643 496 636 596 l 533 496 q 482 594 528 556 q 346 633 436 633 q 179 518 179 633 q 292 415 179 432 l 439 394 q 606 327 556 378 q 657 189 657 276 z "},"Š":{"ha":914,"x_min":72,"x_max":840,"o":"m 657 1132 l 503 1019 l 411 1019 l 257 1132 l 311 1186 l 457 1076 l 603 1186 l 657 1132 m 72 317 l 185 317 q 475 69 189 69 q 667 113 611 69 q 724 242 724 157 q 683 353 724 314 q 556 407 643 392 l 338 440 q 160 518 218 458 q 103 682 103 578 q 192 874 103 800 q 454 949 282 949 q 724 868 629 949 q 828 649 818 788 l 717 649 q 453 858 696 858 q 277 812 335 858 q 219 685 219 765 q 358 539 219 561 l 589 504 q 778 424 715 483 q 840 257 840 365 q 475 -21 840 -21 q 168 73 264 -21 q 72 317 72 167 z "},"š":{"ha":717,"x_min":53,"x_max":657,"o":"m 397 778 l 306 778 l 151 889 l 206 944 l 351 833 l 497 944 l 551 889 l 397 778 m 53 232 l 156 232 q 376 63 171 63 q 547 183 547 63 q 421 299 547 281 l 260 322 q 71 510 71 349 q 144 663 71 607 q 349 718 218 718 q 559 657 482 718 q 643 496 636 596 l 533 496 q 482 594 528 556 q 346 633 436 633 q 179 518 179 633 q 292 415 179 432 l 439 394 q 606 327 556 378 q 657 189 657 276 q 374 -22 657 -22 q 133 47 211 -22 q 53 232 56 115 z "},"Ţ":{"ha":871,"x_min":46,"x_max":824,"o":"m 824 831 l 493 831 l 493 -1 l 481 -1 l 513 -121 q 504 -197 525 -171 q 439 -222 483 -222 l 321 -222 l 321 -144 l 431 -144 l 393 -1 l 379 -1 l 379 831 l 46 831 l 46 924 l 824 924 l 824 831 z "},"ţ":{"ha":543,"x_min":28,"x_max":500,"o":"m 500 694 l 500 607 l 271 607 l 271 90 l 492 90 l 492 0 l 371 0 l 404 -125 q 396 -201 417 -175 q 331 -226 375 -226 l 213 -226 l 213 -149 l 322 -149 l 283 3 q 186 49 213 11 q 160 163 160 86 l 160 607 l 28 607 l 28 669 l 169 704 l 211 849 l 271 849 l 271 694 l 500 694 z "},"Ť":{"ha":871,"x_min":46,"x_max":824,"o":"m 635 1132 l 481 1019 l 389 1019 l 235 1132 l 289 1186 l 435 1076 l 581 1186 l 635 1132 m 46 924 l 824 924 l 824 831 l 493 831 l 493 -1 l 379 -1 l 379 831 l 46 831 l 46 924 z "},"ť":{"ha":546,"x_min":28,"x_max":500,"o":"m 392 781 l 378 1069 l 497 1069 l 483 781 l 392 781 m 492 0 l 328 0 q 196 38 232 0 q 160 163 160 75 l 160 607 l 28 607 l 28 669 l 169 704 l 211 849 l 271 849 l 271 694 l 500 694 l 500 607 l 271 607 l 271 90 l 492 90 l 492 0 z "},"Ŧ":{"ha":875,"x_min":46,"x_max":829,"o":"m 493 515 l 829 515 l 829 421 l 493 421 l 493 -1 l 379 -1 l 379 421 l 51 421 l 51 515 l 379 515 l 379 831 l 46 831 l 46 924 l 824 924 l 824 831 l 493 831 l 493 515 z "},"ŧ":{"ha":543,"x_min":28,"x_max":500,"o":"m 500 694 l 500 607 l 271 607 l 271 485 l 500 485 l 500 397 l 271 397 l 271 90 l 492 90 l 492 0 l 328 0 q 196 38 232 0 q 160 163 160 75 l 160 397 l 28 397 l 28 485 l 160 485 l 160 607 l 28 607 l 28 669 l 169 704 l 211 849 l 271 849 l 271 694 l 500 694 z "},"Ū":{"ha":935,"x_min":93,"x_max":843,"o":"m 700 1144 l 700 1060 l 235 1060 l 235 1144 l 700 1144 m 93 331 l 93 924 l 207 924 l 207 344 q 269 133 207 192 q 468 74 332 74 q 665 133 603 74 q 728 344 728 192 l 728 924 l 843 924 l 843 331 q 468 -22 843 -22 q 93 331 93 -22 z "},"ū":{"ha":813,"x_min":88,"x_max":711,"o":"m 633 924 l 633 839 l 168 839 l 168 924 l 633 924 m 88 251 l 88 694 l 199 694 l 199 264 q 243 112 199 154 q 374 69 288 69 q 541 163 482 69 q 600 429 600 257 l 600 694 l 711 694 l 711 0 l 600 0 l 600 179 q 342 -22 536 -22 q 149 46 211 -22 q 88 251 88 114 z "},"Ů":{"ha":935,"x_min":93,"x_max":843,"o":"m 545 1019 q 531 1004 545 1019 q 468 989 517 989 q 391 1019 419 989 q 363 1093 363 1050 q 391 1166 363 1136 q 468 1196 419 1196 q 545 1166 517 1196 q 574 1093 574 1136 q 545 1019 574 1050 m 419 1093 q 433 1056 419 1071 q 468 1042 447 1042 q 503 1056 489 1042 q 517 1093 517 1071 q 503 1130 517 1117 q 468 1143 489 1143 q 433 1130 447 1143 q 419 1093 419 1117 m 93 331 l 93 924 l 207 924 l 207 344 q 269 133 207 192 q 468 74 332 74 q 665 133 603 74 q 728 344 728 192 l 728 924 l 843 924 l 843 331 q 468 -22 843 -22 q 93 331 93 -22 z "},"ů":{"ha":813,"x_min":88,"x_max":711,"o":"m 469 802 q 456 789 469 802 q 400 775 443 775 q 331 802 357 775 q 306 868 306 829 q 331 933 306 906 q 400 960 357 960 q 469 933 443 960 q 494 868 494 906 q 469 802 494 829 m 369 901 q 362 895 369 901 q 356 868 356 889 q 369 834 356 847 q 400 821 382 821 q 431 834 418 821 q 444 868 444 847 q 431 901 444 889 q 400 914 418 914 q 369 901 382 914 m 88 251 l 88 694 l 199 694 l 199 264 q 243 112 199 154 q 374 69 288 69 q 541 163 482 69 q 600 429 600 257 l 600 694 l 711 694 l 711 0 l 600 0 l 600 179 q 342 -22 536 -22 q 149 46 211 -22 q 88 251 88 114 z "},"Ű":{"ha":935,"x_min":93,"x_max":843,"o":"m 292 1015 l 263 1047 l 435 1208 l 494 1140 l 292 1015 m 544 1015 l 514 1047 l 686 1208 l 746 1140 l 544 1015 m 93 331 l 93 924 l 207 924 l 207 344 q 269 133 207 192 q 468 74 332 74 q 665 133 603 74 q 728 344 728 192 l 728 924 l 843 924 l 843 331 q 468 -22 843 -22 q 93 331 93 -22 z "},"ű":{"ha":813,"x_min":88,"x_max":711,"o":"m 211 782 l 182 814 l 353 975 l 414 907 l 211 782 m 463 782 l 433 814 l 606 975 l 665 907 l 463 782 m 88 251 l 88 694 l 199 694 l 199 264 q 243 112 199 154 q 374 69 288 69 q 541 163 482 69 q 600 429 600 257 l 600 694 l 711 694 l 711 0 l 600 0 l 600 179 q 342 -22 536 -22 q 149 46 211 -22 q 88 251 88 114 z "},"Ų":{"ha":935,"x_min":93,"x_max":843,"o":"m 843 924 l 843 331 q 711 36 843 125 q 668 -62 668 -7 q 694 -124 668 -103 q 760 -144 719 -144 q 832 -133 797 -144 l 832 -211 q 753 -226 797 -226 q 631 -187 676 -226 q 585 -79 585 -149 q 600 -8 585 -39 q 468 -22 544 -22 q 93 331 93 -22 l 93 924 l 207 924 l 207 344 q 269 133 207 192 q 468 74 332 74 q 665 133 603 74 q 728 344 728 192 l 728 924 l 843 924 z "},"ų":{"ha":813,"x_min":88,"x_max":800,"o":"m 728 -144 q 800 -133 765 -144 l 800 -211 q 721 -226 765 -226 q 599 -187 644 -226 q 553 -79 553 -149 q 600 35 553 -12 l 600 179 q 342 -22 536 -22 q 149 46 211 -22 q 88 251 88 114 l 88 694 l 199 694 l 199 264 q 243 112 199 154 q 374 69 288 69 q 541 163 482 69 q 600 429 600 257 l 600 694 l 711 694 l 711 0 l 651 0 q 636 -62 636 -28 q 662 -124 636 -103 q 728 -144 688 -144 z "},"Ŵ":{"ha":1388,"x_min":68,"x_max":1319,"o":"m 840 1015 l 694 1126 l 549 1015 l 494 1071 l 649 1182 l 740 1182 l 894 1071 l 840 1015 m 1010 74 l 1204 924 l 1319 924 l 1108 0 l 914 0 l 694 836 l 474 0 l 279 0 l 68 924 l 185 924 l 379 74 l 604 924 l 785 924 l 1010 74 z "},"ŵ":{"ha":1218,"x_min":39,"x_max":1178,"o":"m 754 757 l 608 867 l 463 757 l 408 811 l 563 924 l 654 924 l 808 811 l 754 757 m 889 83 l 1069 694 l 1178 694 l 967 0 l 808 0 l 608 563 l 410 0 l 251 0 l 39 694 l 156 694 l 335 83 l 554 694 l 669 694 l 889 83 z "},"Ŷ":{"ha":888,"x_min":39,"x_max":849,"o":"m 590 1015 l 444 1126 l 299 1015 l 244 1071 l 399 1182 l 490 1182 l 644 1071 l 590 1015 m 508 542 l 719 924 l 849 924 l 501 324 l 501 0 l 386 0 l 386 324 l 39 924 l 171 924 l 381 542 q 444 424 415 476 q 474 477 451 436 q 508 542 496 518 z "},"ŷ":{"ha":772,"x_min":39,"x_max":738,"o":"m 532 757 l 386 867 l 240 757 l 186 811 l 340 924 l 432 924 l 586 811 l 532 757 m 413 160 l 628 694 l 738 694 l 411 -115 q 339 -243 375 -208 q 215 -278 303 -278 l 83 -278 l 83 -187 l 276 -187 l 353 0 l 314 0 l 39 694 l 156 694 l 368 160 l 392 93 l 413 160 z "},"Ÿ":{"ha":888,"x_min":39,"x_max":849,"o":"m 258 1140 l 392 1140 l 392 1025 l 258 1025 l 258 1140 m 494 1140 l 629 1140 l 629 1025 l 494 1025 l 494 1140 m 508 542 l 719 924 l 849 924 l 501 324 l 501 0 l 386 0 l 386 324 l 39 924 l 171 924 l 381 542 q 444 424 415 476 q 474 477 451 436 q 508 542 496 518 z "},"Ź":{"ha":949,"x_min":90,"x_max":865,"o":"m 604 1176 l 638 1092 l 332 1004 l 313 1047 l 604 1176 m 861 831 l 232 93 l 865 93 l 865 0 l 90 0 l 90 93 l 721 831 l 99 831 l 99 924 l 861 924 l 861 831 z "},"ź":{"ha":757,"x_min":79,"x_max":690,"o":"m 511 951 l 544 867 l 239 779 l 219 822 l 511 951 m 683 610 l 214 85 l 690 85 l 690 0 l 79 0 l 79 85 l 551 610 l 79 610 l 79 694 l 683 694 l 683 610 z "},"Ż":{"ha":949,"x_min":90,"x_max":865,"o":"m 403 1140 l 546 1140 l 546 1025 l 403 1025 l 403 1140 m 861 831 l 232 93 l 865 93 l 865 0 l 90 0 l 90 93 l 721 831 l 99 831 l 99 924 l 861 924 l 861 831 z "},"ż":{"ha":757,"x_min":79,"x_max":690,"o":"m 310 924 l 453 924 l 453 808 l 310 808 l 310 924 m 683 610 l 214 85 l 690 85 l 690 0 l 79 0 l 79 85 l 551 610 l 79 610 l 79 694 l 683 694 l 683 610 z "},"Ž":{"ha":949,"x_min":90,"x_max":865,"o":"m 675 1132 l 521 1019 l 429 1019 l 275 1132 l 329 1186 l 475 1076 l 621 1186 l 675 1132 m 861 831 l 232 93 l 865 93 l 865 0 l 90 0 l 90 93 l 721 831 l 99 831 l 99 924 l 861 924 l 861 831 z "},"ž":{"ha":757,"x_min":79,"x_max":690,"o":"m 582 889 l 428 778 l 336 778 l 182 889 l 236 944 l 382 833 l 528 944 l 582 889 m 683 610 l 214 85 l 690 85 l 690 0 l 79 0 l 79 85 l 551 610 l 79 610 l 79 694 l 683 694 l 683 610 z "},"ƒ":{"ha":693,"x_min":111,"x_max":582,"o":"m 582 972 l 582 882 l 403 882 l 403 504 l 557 504 l 557 418 l 403 418 l 403 -115 q 363 -240 403 -201 q 225 -278 322 -278 l 111 -278 l 111 -187 l 292 -187 l 292 418 l 138 418 l 138 504 l 292 504 l 292 810 q 331 934 292 896 q 468 972 371 972 l 582 972 z "},"Ǎ":{"ha":971,"x_min":51,"x_max":922,"o":"m 688 1132 l 533 1019 l 442 1019 l 288 1132 l 342 1186 l 488 1076 l 633 1186 l 688 1132 m 922 0 l 806 0 l 715 236 l 257 236 l 167 0 l 51 0 l 401 924 l 572 924 l 922 0 m 486 840 l 292 329 l 681 329 l 486 840 z "},"ǎ":{"ha":761,"x_min":81,"x_max":682,"o":"m 433 778 l 342 778 l 188 889 l 242 944 l 388 833 l 533 944 l 588 889 l 433 778 m 310 -18 q 144 35 207 -18 q 81 183 81 88 q 292 392 81 357 l 468 421 q 549 449 525 431 q 572 506 572 467 q 401 631 572 631 q 207 476 219 631 l 97 476 q 178 653 100 589 q 397 718 256 718 q 604 660 535 718 q 674 506 674 603 l 674 172 q 682 0 674 82 l 581 0 q 571 163 571 104 q 483 35 547 88 q 310 -18 419 -18 m 332 69 q 510 146 447 69 q 572 329 572 222 l 572 389 q 447 342 531 360 l 332 318 q 226 273 260 303 q 193 188 193 243 q 231 99 193 129 q 332 69 268 69 z "},"Ǐ":{"ha":692,"x_min":93,"x_max":599,"o":"m 546 1132 l 392 1019 l 300 1019 l 146 1132 l 200 1186 l 346 1076 l 492 1186 l 546 1132 m 599 924 l 599 831 l 403 831 l 403 93 l 599 93 l 599 0 l 93 0 l 93 93 l 289 93 l 289 831 l 93 831 l 93 924 l 599 924 z "},"ǐ":{"ha":315,"x_min":-43,"x_max":357,"o":"m 157 833 l 303 944 l 357 889 l 203 778 l 111 778 l -43 889 l 11 944 l 157 833 m 213 0 l 101 0 l 101 694 l 213 694 l 213 0 z "},"Ǒ":{"ha":1074,"x_min":76,"x_max":997,"o":"m 490 1019 l 336 1132 l 390 1186 l 536 1076 l 682 1186 l 736 1132 l 582 1019 l 490 1019 m 882 110 q 824 43 882 110 q 536 -24 767 -24 q 191 109 306 -24 q 76 463 76 242 q 191 815 76 681 q 536 949 306 949 q 743 912 653 949 q 888 808 833 875 q 969 654 942 742 q 997 463 997 567 q 882 110 997 243 m 279 756 q 238 708 279 756 q 197 463 197 660 q 279 169 197 265 q 536 72 361 72 q 794 169 711 72 q 876 463 876 265 q 794 756 876 660 q 536 853 711 853 q 279 756 361 853 z "},"ǒ":{"ha":832,"x_min":67,"x_max":765,"o":"m 217 889 l 271 944 l 417 833 l 563 944 l 617 889 l 463 778 l 371 778 l 217 889 m 417 -22 q 157 81 247 -22 q 67 349 67 183 q 157 614 67 511 q 417 717 247 717 q 675 614 585 717 q 765 349 765 511 q 675 81 765 185 q 417 -22 585 -22 m 238 559 q 209 525 238 559 q 179 347 179 492 q 238 135 179 203 q 417 68 297 68 q 594 135 536 68 q 653 347 653 203 q 594 559 653 492 q 417 626 536 626 q 238 559 297 626 z "},"Ǔ":{"ha":935,"x_min":93,"x_max":843,"o":"m 468 1076 l 614 1186 l 668 1132 l 514 1019 l 422 1019 l 268 1132 l 322 1186 l 468 1076 m 93 331 l 93 924 l 207 924 l 207 344 q 269 133 207 192 q 468 74 332 74 q 665 133 603 74 q 728 344 728 192 l 728 924 l 843 924 l 843 331 q 468 -22 843 -22 q 93 331 93 -22 z "},"ǔ":{"ha":813,"x_min":88,"x_max":711,"o":"m 600 889 l 446 778 l 354 778 l 200 889 l 254 944 l 400 833 l 546 944 l 600 889 m 88 251 l 88 694 l 199 694 l 199 264 q 243 112 199 154 q 374 69 288 69 q 541 163 482 69 q 600 429 600 257 l 600 694 l 711 694 l 711 0 l 600 0 l 600 179 q 342 -22 536 -22 q 149 46 211 -22 q 88 251 88 114 z "},"Ǖ":{"ha":935,"x_min":93,"x_max":843,"o":"m 700 1269 l 235 1269 l 235 1354 l 700 1354 l 700 1269 m 415 1140 l 415 1025 l 282 1025 l 282 1140 l 415 1140 m 653 1140 l 653 1025 l 518 1025 l 518 1140 l 653 1140 m 93 331 l 93 924 l 207 924 l 207 344 q 269 133 207 192 q 468 74 332 74 q 665 133 603 74 q 728 344 728 192 l 728 924 l 843 924 l 843 331 q 468 -22 843 -22 q 93 331 93 -22 z "},"ǖ":{"ha":813,"x_min":88,"x_max":711,"o":"m 633 1068 l 168 1068 l 168 1153 l 633 1153 l 633 1068 m 339 924 l 339 808 l 204 808 l 204 924 l 339 924 m 594 924 l 594 808 l 460 808 l 460 924 l 594 924 m 88 251 l 88 694 l 199 694 l 199 264 q 243 112 199 154 q 374 69 288 69 q 541 163 482 69 q 600 429 600 257 l 600 694 l 711 694 l 711 0 l 600 0 l 600 179 q 342 -22 536 -22 q 149 46 211 -22 q 88 251 88 114 z "},"Ǘ":{"ha":935,"x_min":93,"x_max":843,"o":"m 304 1257 l 596 1386 l 629 1301 l 324 1214 l 304 1257 m 282 1140 l 415 1140 l 415 1025 l 282 1025 l 282 1140 m 518 1140 l 653 1140 l 653 1025 l 518 1025 l 518 1140 m 93 331 l 93 924 l 207 924 l 207 344 q 269 133 207 192 q 468 74 332 74 q 665 133 603 74 q 728 344 728 192 l 728 924 l 843 924 l 843 331 q 468 -22 843 -22 q 93 331 93 -22 z "},"ǘ":{"ha":813,"x_min":88,"x_max":711,"o":"m 257 1008 l 238 1051 l 529 1181 l 563 1096 l 257 1008 m 204 924 l 339 924 l 339 808 l 204 808 l 204 924 m 460 924 l 594 924 l 594 808 l 460 808 l 460 924 m 88 251 l 88 694 l 199 694 l 199 264 q 243 112 199 154 q 374 69 288 69 q 541 163 482 69 q 600 429 600 257 l 600 694 l 711 694 l 711 0 l 600 0 l 600 179 q 342 -22 536 -22 q 149 46 211 -22 q 88 251 88 114 z "},"Ǚ":{"ha":935,"x_min":93,"x_max":843,"o":"m 322 1396 l 468 1286 l 614 1396 l 668 1342 l 514 1229 l 422 1229 l 268 1342 l 322 1396 m 282 1025 l 282 1140 l 415 1140 l 415 1025 l 282 1025 m 518 1025 l 518 1140 l 653 1140 l 653 1025 l 518 1025 m 93 331 l 93 924 l 207 924 l 207 344 q 269 133 207 192 q 468 74 332 74 q 665 133 603 74 q 728 344 728 192 l 728 924 l 843 924 l 843 331 q 468 -22 843 -22 q 93 331 93 -22 z "},"ǚ":{"ha":813,"x_min":88,"x_max":711,"o":"m 546 1174 l 600 1118 l 446 1007 l 354 1007 l 200 1118 l 254 1174 l 400 1063 l 546 1174 m 204 808 l 204 924 l 339 924 l 339 808 l 204 808 m 460 808 l 460 924 l 594 924 l 594 808 l 460 808 m 88 251 l 88 694 l 199 694 l 199 264 q 243 112 199 154 q 374 69 288 69 q 541 163 482 69 q 600 429 600 257 l 600 694 l 711 694 l 711 0 l 600 0 l 600 179 q 342 -22 536 -22 q 149 46 211 -22 q 88 251 88 114 z "},"Ǜ":{"ha":935,"x_min":93,"x_max":843,"o":"m 611 1214 l 306 1301 l 339 1386 l 631 1257 l 611 1214 m 415 1025 l 282 1025 l 282 1140 l 415 1140 l 415 1025 m 653 1025 l 518 1025 l 518 1140 l 653 1140 l 653 1025 m 93 331 l 93 924 l 207 924 l 207 344 q 269 133 207 192 q 468 74 332 74 q 665 133 603 74 q 728 344 728 192 l 728 924 l 843 924 l 843 331 q 468 -22 843 -22 q 93 331 93 -22 z "},"ǜ":{"ha":813,"x_min":88,"x_max":711,"o":"m 242 1096 l 275 1181 l 567 1051 l 549 1008 l 242 1096 m 339 808 l 204 808 l 204 924 l 339 924 l 339 808 m 594 808 l 460 808 l 460 924 l 594 924 l 594 808 m 88 251 l 88 694 l 199 694 l 199 264 q 243 112 199 154 q 374 69 288 69 q 541 163 482 69 q 600 429 600 257 l 600 694 l 711 694 l 711 0 l 600 0 l 600 179 q 342 -22 536 -22 q 149 46 211 -22 q 88 251 88 114 z "},"Ș":{"ha":914,"x_min":72,"x_max":840,"o":"m 72 317 l 185 317 q 475 69 189 69 q 667 113 611 69 q 724 242 724 157 q 683 353 724 314 q 556 407 643 392 l 338 440 q 160 518 218 458 q 103 682 103 578 q 192 874 103 800 q 454 949 282 949 q 724 868 629 949 q 828 649 818 788 l 717 649 q 453 858 696 858 q 277 812 335 858 q 219 685 219 765 q 358 539 219 561 l 589 504 q 778 424 715 483 q 840 257 840 365 q 475 -21 840 -21 q 168 73 264 -21 q 72 317 72 167 m 456 -194 l 385 -194 l 385 -78 l 529 -78 l 529 -281 q 502 -362 529 -337 q 415 -386 475 -386 l 385 -386 l 385 -314 l 456 -314 l 456 -194 z "},"ș":{"ha":717,"x_min":53,"x_max":657,"o":"m 53 232 l 156 232 q 376 63 171 63 q 547 183 547 63 q 421 299 547 281 l 260 322 q 71 510 71 349 q 144 663 71 607 q 349 718 218 718 q 559 657 482 718 q 643 496 636 596 l 533 496 q 482 594 528 556 q 346 633 436 633 q 179 518 179 633 q 292 415 179 432 l 439 394 q 606 327 556 378 q 657 189 657 276 q 374 -22 657 -22 q 133 47 211 -22 q 53 232 56 115 m 350 -194 l 279 -194 l 279 -78 l 424 -78 l 424 -281 q 397 -362 424 -337 q 310 -386 369 -386 l 279 -386 l 279 -314 l 350 -314 l 350 -194 z "},"Ț":{"ha":871,"x_min":46,"x_max":824,"o":"m 46 924 l 824 924 l 824 831 l 493 831 l 493 -1 l 379 -1 l 379 831 l 46 831 l 46 924 m 418 -190 l 347 -190 l 347 -74 l 492 -74 l 492 -276 q 465 -358 492 -333 q 378 -382 438 -382 l 347 -382 l 347 -310 l 418 -310 l 418 -190 z "},"ț":{"ha":543,"x_min":28,"x_max":500,"o":"m 492 0 l 328 0 q 196 38 232 0 q 160 163 160 75 l 160 607 l 28 607 l 28 669 l 169 704 l 211 849 l 271 849 l 271 694 l 500 694 l 500 607 l 271 607 l 271 90 l 492 90 l 492 0 m 308 -194 l 238 -194 l 238 -78 l 382 -78 l 382 -281 q 355 -362 382 -337 q 268 -386 328 -386 l 238 -386 l 238 -314 l 308 -314 l 308 -194 z "},"ȷ":{"ha":299,"x_min":-83,"x_max":208,"o":"m 31 -278 l -83 -278 l -83 -187 l 97 -187 l 97 694 l 208 694 l 208 -115 q 168 -240 208 -201 q 31 -278 128 -278 z "},"ˆ":{"ha":833,"x_min":42,"x_max":442,"o":"m 242 867 l 96 757 l 42 811 l 196 924 l 288 924 l 442 811 l 388 757 l 242 867 z "},"ˇ":{"ha":833,"x_min":118,"x_max":518,"o":"m 318 833 l 464 944 l 518 889 l 364 778 l 272 778 l 118 889 l 172 944 l 318 833 z "},"˘":{"ha":833,"x_min":118,"x_max":444,"o":"m 118 924 l 185 924 q 281 847 194 847 q 376 924 369 847 l 444 924 q 400 823 439 865 q 281 781 361 781 q 162 823 200 781 q 118 924 124 865 z "},"˙":{"ha":833,"x_min":85,"x_max":228,"o":"m 228 808 l 85 808 l 85 924 l 228 924 l 228 808 z "},"˚":{"ha":425,"x_min":118,"x_max":307,"o":"m 281 802 q 268 789 281 802 q 213 775 256 775 q 144 802 169 775 q 118 868 118 829 q 144 933 118 906 q 213 960 169 960 q 281 933 256 960 q 307 868 307 906 q 281 802 307 829 m 181 901 q 175 895 181 901 q 168 868 168 889 q 181 834 168 847 q 213 821 194 821 q 244 834 231 821 q 257 868 257 847 q 244 901 257 889 q 213 914 231 914 q 181 901 194 914 z "},"˛":{"ha":833,"x_min":108,"x_max":356,"o":"m 276 -226 q 154 -187 200 -226 q 108 -79 108 -149 q 225 85 108 22 l 247 50 q 192 -62 192 -3 q 217 -124 192 -103 q 283 -144 243 -144 q 356 -133 321 -144 l 356 -211 q 276 -226 321 -226 z "},"˜":{"ha":833,"x_min":136,"x_max":539,"o":"m 436 800 q 332 831 400 800 q 249 863 264 863 q 218 832 218 863 l 218 803 l 136 803 l 136 838 q 165 905 136 883 q 239 926 194 926 q 348 895 285 926 q 426 864 411 864 q 457 894 457 864 l 457 924 l 539 924 l 539 888 q 510 822 539 843 q 436 800 481 800 z "},"˝":{"ha":833,"x_min":103,"x_max":586,"o":"m 132 782 l 103 814 l 274 975 l 335 907 l 132 782 m 383 782 l 354 814 l 526 975 l 586 907 l 383 782 z "},"̀":{"ha":0,"x_min":-367,"x_max":-42,"o":"m -367 867 l -333 951 l -42 822 l -60 779 l -367 867 z "},"́":{"ha":0,"x_min":-368,"x_max":-43,"o":"m -368 822 l -76 951 l -43 867 l -349 779 l -368 822 z "},"̂":{"ha":0,"x_min":-442,"x_max":-42,"o":"m -242 867 l -387 757 l -442 811 l -287 924 l -196 924 l -42 811 l -96 757 l -242 867 z "},"̃":{"ha":0,"x_min":-537,"x_max":-135,"o":"m -237 800 q -342 831 -274 800 q -425 863 -410 863 q -456 832 -456 863 l -456 803 l -537 803 l -537 838 q -508 905 -537 883 q -435 926 -479 926 q -326 895 -389 926 q -247 864 -262 864 q -217 894 -217 864 l -217 924 l -135 924 l -135 888 q -164 822 -135 843 q -237 800 -193 800 z "},"̄":{"ha":0,"x_min":-596,"x_max":-131,"o":"m -596 924 l -131 924 l -131 839 l -596 839 l -596 924 z "},"̆":{"ha":0,"x_min":-444,"x_max":-118,"o":"m -444 924 l -378 924 q -282 847 -368 847 q -186 924 -193 847 l -118 924 q -162 823 -124 865 q -282 781 -201 781 q -401 823 -362 781 q -444 924 -439 865 z "},"̇":{"ha":0,"x_min":-228,"x_max":-85,"o":"m -85 808 l -228 808 l -228 924 l -85 924 l -85 808 z "},"̈":{"ha":0,"x_min":-450,"x_max":-60,"o":"m -315 808 l -450 808 l -450 924 l -315 924 l -315 808 m -60 808 l -194 808 l -194 924 l -60 924 l -60 808 z "},"̊":{"ha":0,"x_min":-307,"x_max":-118,"o":"m -144 802 q -157 789 -144 802 q -212 775 -169 775 q -281 802 -256 775 q -307 868 -307 829 q -281 933 -307 906 q -212 960 -256 960 q -144 933 -169 960 q -118 868 -118 906 q -144 802 -118 829 m -244 901 q -250 895 -244 901 q -257 868 -257 889 q -244 834 -257 847 q -212 821 -231 821 q -181 834 -194 821 q -168 868 -168 847 q -181 901 -168 889 q -212 914 -194 914 q -244 901 -231 914 z "},"̋":{"ha":0,"x_min":-585,"x_max":-101,"o":"m -556 782 l -585 814 l -414 975 l -353 907 l -556 782 m -304 782 l -333 814 l -161 975 l -101 907 l -304 782 z "},"̌":{"ha":0,"x_min":-518,"x_max":-118,"o":"m -318 833 l -172 944 l -118 889 l -272 778 l -364 778 l -518 889 l -464 944 l -318 833 z "},"̒":{"ha":0,"x_min":-261,"x_max":-118,"o":"m -118 1022 l -189 1022 l -189 903 l -118 903 l -118 786 l -261 786 l -261 989 q -234 1070 -261 1046 q -147 1094 -207 1094 l -118 1094 l -118 1022 z "},"̦":{"ha":0,"x_min":-197,"x_max":-53,"o":"m -126 -194 l -197 -194 l -197 -78 l -53 -78 l -53 -281 q -80 -362 -53 -337 q -167 -386 -107 -386 l -197 -386 l -197 -314 l -126 -314 l -126 -194 z "},"̧":{"ha":0,"x_min":-289,"x_max":-85,"o":"m -171 -226 l -289 -226 l -289 -149 l -179 -149 l -226 32 l -139 32 l -97 -125 q -106 -201 -85 -175 q -171 -226 -126 -226 z "},"̨":{"ha":0,"x_min":-353,"x_max":-106,"o":"m -185 -226 q -307 -187 -261 -226 q -353 -79 -353 -149 q -236 85 -353 22 l -214 50 q -269 -62 -269 -3 q -244 -124 -269 -103 q -178 -144 -218 -144 q -106 -133 -140 -144 l -106 -211 q -185 -226 -140 -226 z "},"Δ":{"ha":975,"x_min":69,"x_max":906,"o":"m 564 924 l 906 96 l 906 0 l 69 0 l 69 96 l 411 924 l 564 924 m 488 824 l 188 93 l 786 93 l 488 824 z "},"Ω":{"ha":1107,"x_min":72,"x_max":1035,"o":"m 1035 0 l 72 0 l 72 92 l 333 92 q 151 242 213 139 q 89 486 89 344 q 205 822 89 694 q 553 949 321 949 q 901 822 785 949 q 1018 486 1018 694 q 956 242 1018 344 q 774 92 894 139 l 1035 92 l 1035 0 m 553 100 q 814 193 731 100 q 897 481 897 286 q 814 766 897 674 q 553 858 731 858 q 292 766 375 858 q 210 481 210 674 q 293 193 210 286 q 553 100 376 100 z "},"π":{"ha":958,"x_min":63,"x_max":896,"o":"m 896 694 l 896 607 l 708 607 l 708 90 l 886 90 l 886 0 l 764 0 q 633 38 668 0 q 597 163 597 75 l 597 607 l 375 607 l 375 0 l 264 0 l 264 607 l 63 607 l 63 694 l 896 694 z "},"Ẁ":{"ha":1388,"x_min":68,"x_max":1319,"o":"m 565 1176 l 857 1047 l 838 1004 l 532 1092 l 565 1176 m 1010 74 l 1204 924 l 1319 924 l 1108 0 l 914 0 l 694 836 l 474 0 l 279 0 l 68 924 l 185 924 l 379 74 l 604 924 l 785 924 l 1010 74 z "},"ẁ":{"ha":1218,"x_min":39,"x_max":1178,"o":"m 483 951 l 775 822 l 757 779 l 450 867 l 483 951 m 889 83 l 1069 694 l 1178 694 l 967 0 l 808 0 l 608 563 l 410 0 l 251 0 l 39 694 l 156 694 l 335 83 l 554 694 l 669 694 l 889 83 z "},"Ẃ":{"ha":1388,"x_min":68,"x_max":1319,"o":"m 822 1176 l 856 1092 l 550 1004 l 531 1047 l 822 1176 m 1010 74 l 1204 924 l 1319 924 l 1108 0 l 914 0 l 694 836 l 474 0 l 279 0 l 68 924 l 185 924 l 379 74 l 604 924 l 785 924 l 1010 74 z "},"ẃ":{"ha":1218,"x_min":39,"x_max":1178,"o":"m 738 951 l 771 867 l 465 779 l 446 822 l 738 951 m 889 83 l 1069 694 l 1178 694 l 967 0 l 808 0 l 608 563 l 410 0 l 251 0 l 39 694 l 156 694 l 335 83 l 554 694 l 669 694 l 889 83 z "},"Ẅ":{"ha":1388,"x_min":68,"x_max":1319,"o":"m 508 1140 l 642 1140 l 642 1025 l 508 1025 l 508 1140 m 744 1140 l 879 1140 l 879 1025 l 744 1025 l 744 1140 m 1010 74 l 1204 924 l 1319 924 l 1108 0 l 914 0 l 694 836 l 474 0 l 279 0 l 68 924 l 185 924 l 379 74 l 604 924 l 785 924 l 1010 74 z "},"ẅ":{"ha":1218,"x_min":39,"x_max":1178,"o":"m 413 924 l 547 924 l 547 808 l 413 808 l 413 924 m 668 924 l 803 924 l 803 808 l 668 808 l 668 924 m 889 83 l 1069 694 l 1178 694 l 967 0 l 808 0 l 608 563 l 410 0 l 251 0 l 39 694 l 156 694 l 335 83 l 554 694 l 669 694 l 889 83 z "},"Ỳ":{"ha":888,"x_min":39,"x_max":849,"o":"m 315 1176 l 607 1047 l 588 1004 l 282 1092 l 315 1176 m 508 542 l 719 924 l 849 924 l 501 324 l 501 0 l 386 0 l 386 324 l 39 924 l 171 924 l 381 542 q 444 424 415 476 q 474 477 451 436 q 508 542 496 518 z "},"ỳ":{"ha":772,"x_min":39,"x_max":738,"o":"m 260 951 l 551 822 l 533 779 l 226 867 l 260 951 m 413 160 l 628 694 l 738 694 l 411 -115 q 339 -243 375 -208 q 215 -278 303 -278 l 83 -278 l 83 -187 l 276 -187 l 353 0 l 314 0 l 39 694 l 156 694 l 368 160 l 392 93 l 413 160 z "},"–":{"ha":786,"x_min":46,"x_max":740,"o":"m 46 304 l 46 389 l 740 389 l 740 304 l 46 304 z "},"—":{"ha":1064,"x_min":46,"x_max":1018,"o":"m 46 304 l 46 389 l 1018 389 l 1018 304 l 46 304 z "},"‘":{"ha":201,"x_min":29,"x_max":172,"o":"m 101 733 l 172 733 l 172 615 l 29 615 l 29 819 q 56 900 29 876 q 142 924 82 924 l 172 924 l 172 851 l 101 851 l 101 733 z "},"’":{"ha":201,"x_min":29,"x_max":172,"o":"m 100 807 l 29 807 l 29 924 l 172 924 l 172 721 q 145 640 172 664 q 58 615 118 615 l 29 615 l 29 688 l 100 688 l 100 807 z "},"‚":{"ha":201,"x_min":29,"x_max":172,"o":"m 100 6 l 29 6 l 29 122 l 172 122 l 172 -81 q 145 -161 172 -137 q 58 -185 118 -185 l 29 -185 l 29 -112 l 100 -112 l 100 6 z "},"“":{"ha":403,"x_min":29,"x_max":374,"o":"m 101 733 l 172 733 l 172 615 l 29 615 l 29 819 q 56 900 29 876 q 142 924 82 924 l 172 924 l 172 851 l 101 851 l 101 733 m 303 733 l 374 733 l 374 615 l 231 615 l 231 819 q 257 900 231 876 q 343 924 283 924 l 374 924 l 374 851 l 303 851 l 303 733 z "},"”":{"ha":403,"x_min":29,"x_max":374,"o":"m 100 807 l 29 807 l 29 924 l 172 924 l 172 721 q 145 640 172 664 q 58 615 118 615 l 29 615 l 29 688 l 100 688 l 100 807 m 301 807 l 231 807 l 231 924 l 374 924 l 374 721 q 347 640 374 664 q 260 615 319 615 l 231 615 l 231 688 l 301 688 l 301 807 z "},"„":{"ha":401,"x_min":29,"x_max":374,"o":"m 100 6 l 29 6 l 29 122 l 172 122 l 172 -81 q 145 -161 172 -137 q 58 -185 118 -185 l 29 -185 l 29 -112 l 100 -112 l 100 6 m 301 6 l 231 6 l 231 122 l 374 122 l 374 -81 q 347 -161 374 -137 q 260 -185 319 -185 l 231 -185 l 231 -112 l 301 -112 l 301 6 z "},"†":{"ha":769,"x_min":118,"x_max":651,"o":"m 440 815 l 651 815 l 651 715 l 440 715 l 440 267 l 329 267 l 329 715 l 118 715 l 118 815 l 329 815 l 329 1035 l 440 1035 l 440 815 z "},"‡":{"ha":769,"x_min":118,"x_max":651,"o":"m 651 842 l 651 742 l 440 742 l 440 560 l 651 560 l 651 460 l 440 460 l 440 267 l 329 267 l 329 460 l 118 460 l 118 560 l 329 560 l 329 742 l 118 742 l 118 842 l 329 842 l 329 1035 l 440 1035 l 440 842 l 651 842 z "},"•":{"ha":504,"x_min":139,"x_max":365,"o":"m 251 233 q 170 265 201 233 q 139 347 139 296 q 170 429 139 399 q 251 460 201 460 q 334 429 303 460 q 365 347 365 399 q 334 265 365 296 q 251 233 303 233 z "},"…":{"ha":757,"x_min":29,"x_max":729,"o":"m 174 0 l 29 0 l 29 122 l 174 122 l 174 0 m 451 0 l 307 0 l 307 122 l 451 122 l 451 0 m 729 0 l 585 0 l 585 122 l 729 122 l 729 0 z "},"‰":{"ha":1614,"x_min":69,"x_max":1544,"o":"m 185 0 l 69 0 l 69 17 l 929 840 l 506 840 l 506 554 l 121 554 l 121 924 l 989 924 q 1057 868 1057 924 q 1017 794 1057 833 l 185 0 m 211 840 l 211 638 l 418 638 l 418 840 l 211 840 m 1044 0 l 660 0 l 660 368 l 1044 368 l 1044 0 m 1544 0 l 1160 0 l 1160 368 l 1544 368 l 1544 0 m 750 288 l 750 83 l 956 83 l 956 288 l 750 288 m 1250 288 l 1250 83 l 1457 83 l 1457 288 l 1250 288 z "},"‹":{"ha":568,"x_min":79,"x_max":496,"o":"m 365 0 l 79 343 l 79 351 l 365 694 l 496 694 l 200 347 l 496 0 l 365 0 z "},"›":{"ha":568,"x_min":72,"x_max":489,"o":"m 489 351 l 489 343 l 203 0 l 72 0 l 368 347 l 72 694 l 203 694 l 489 351 z "},"€":{"ha":1235,"x_min":111,"x_max":1124,"o":"m 349 581 l 786 581 l 786 494 l 111 494 l 111 581 l 229 581 q 373 849 258 750 q 683 949 488 949 q 1119 579 1083 949 l 1003 579 q 681 853 974 853 q 349 581 397 853 m 1006 368 l 1124 368 q 1003 80 1111 183 q 681 -24 894 -24 q 379 69 492 -24 q 233 322 267 161 l 111 322 l 111 407 l 786 407 l 786 322 l 353 322 q 678 72 406 72 q 914 149 832 72 q 1006 368 996 225 z "},"™":{"ha":735,"x_min":46,"x_max":640,"o":"m 640 924 l 640 615 l 601 615 l 601 894 l 497 615 l 446 615 l 342 894 l 342 615 l 303 615 l 303 893 l 196 893 l 196 615 l 157 615 l 157 893 l 46 893 l 46 924 l 371 924 l 472 651 l 574 924 l 640 924 z "},"←":{"ha":1078,"x_min":69,"x_max":1008,"o":"m 244 458 l 1008 458 l 1008 368 l 246 368 l 568 49 l 501 -19 l 69 414 l 501 846 l 568 779 l 244 458 z "},"↑":{"ha":1004,"x_min":69,"x_max":935,"o":"m 503 939 l 935 507 l 868 442 l 551 761 l 551 0 l 453 0 l 453 760 l 136 442 l 69 507 l 503 939 z "},"→":{"ha":1078,"x_min":69,"x_max":1008,"o":"m 510 779 l 576 846 l 1008 414 l 576 -19 l 510 49 l 832 368 l 69 368 l 69 458 l 833 458 l 510 779 z "},"↓":{"ha":1004,"x_min":69,"x_max":935,"o":"m 551 143 l 868 463 l 935 397 l 503 -35 l 69 397 l 136 463 l 453 144 l 453 904 l 551 904 l 551 143 z "},"↖":{"ha":838,"x_min":69,"x_max":768,"o":"m 231 603 l 768 65 l 699 -4 l 161 533 l 163 83 l 69 83 l 69 694 l 681 694 l 681 601 l 231 603 z "},"↗":{"ha":838,"x_min":69,"x_max":768,"o":"m 157 601 l 157 694 l 768 694 l 768 83 l 675 83 l 676 533 l 139 -4 l 69 65 l 607 603 l 157 601 z "},"↘":{"ha":838,"x_min":69,"x_max":768,"o":"m 676 161 l 675 611 l 768 611 l 768 0 l 157 0 l 157 93 l 607 92 l 69 629 l 139 699 l 676 161 z "},"↙":{"ha":838,"x_min":69,"x_max":768,"o":"m 699 699 l 768 629 l 231 92 l 681 93 l 681 0 l 69 0 l 69 611 l 163 611 l 161 161 l 699 699 z "},"∂":{"ha":824,"x_min":68,"x_max":756,"o":"m 155 78 q 111 129 155 78 q 68 347 68 179 q 149 616 68 515 q 386 717 229 717 q 649 563 575 717 q 562 784 649 675 q 314 949 475 893 l 354 1028 q 661 813 567 958 q 756 426 756 668 q 669 86 756 194 q 413 -22 582 -22 q 155 78 242 -22 m 235 558 q 208 523 235 558 q 181 347 181 489 q 235 137 181 206 q 408 68 290 68 q 649 347 649 68 q 408 626 649 626 q 235 558 290 626 z "},"∏":{"ha":1056,"x_min":125,"x_max":949,"o":"m 949 1035 l 949 935 l 776 935 l 776 -278 l 665 -278 l 665 935 l 408 935 l 408 -278 l 297 -278 l 297 935 l 125 935 l 125 1035 l 949 1035 z "},"∑":{"ha":882,"x_min":111,"x_max":771,"o":"m 111 1035 l 771 1035 l 771 935 l 240 935 l 607 379 l 240 -178 l 771 -178 l 771 -278 l 111 -278 l 111 -178 l 478 379 l 111 935 l 111 1035 z "},"−":{"ha":792,"x_min":118,"x_max":674,"o":"m 118 304 l 118 389 l 674 389 l 674 304 l 118 304 z "},"√":{"ha":1285,"x_min":111,"x_max":1201,"o":"m 1201 1035 l 1201 935 l 931 935 l 535 -278 l 367 -278 l 111 358 l 222 358 l 447 -200 l 851 1035 l 1201 1035 z "},"∞":{"ha":1124,"x_min":111,"x_max":1013,"o":"m 488 229 q 459 198 488 229 q 329 167 429 167 q 170 229 229 167 q 111 382 111 292 q 170 531 111 469 q 329 593 229 593 q 488 531 429 593 q 547 382 547 469 q 488 229 547 292 m 953 229 q 923 198 953 229 q 793 167 893 167 q 634 229 693 167 q 575 382 575 292 q 634 531 575 469 q 793 593 693 593 q 953 532 893 593 q 1013 382 1013 471 q 953 229 1013 292 m 235 478 q 216 461 235 478 q 197 382 197 443 q 235 283 197 321 q 329 246 274 246 q 423 283 385 246 q 461 382 461 321 q 424 478 461 443 q 329 514 386 514 q 235 478 274 514 m 700 478 q 681 461 700 478 q 663 382 663 443 q 701 283 663 321 q 793 246 739 246 q 887 283 849 246 q 925 382 925 321 q 888 478 925 443 q 793 514 850 514 q 700 478 738 514 z "},"∫":{"ha":835,"x_min":111,"x_max":724,"o":"m 231 -278 l 111 -278 l 111 -178 l 293 -178 l 426 872 q 474 999 439 963 q 603 1035 508 1035 l 724 1035 l 724 935 l 540 935 l 407 -115 q 360 -242 394 -206 q 231 -278 325 -278 z "},"≈":{"ha":685,"x_min":118,"x_max":567,"o":"m 458 400 q 364 431 407 400 q 290 491 321 461 q 238 521 258 521 q 200 468 200 521 l 200 403 l 118 403 l 118 488 q 225 597 118 597 q 303 578 267 597 q 361 536 340 558 q 406 494 382 514 q 449 475 429 475 q 485 528 485 475 l 485 594 l 567 594 l 567 510 q 534 426 567 453 q 458 400 501 400 m 458 94 q 382 114 418 94 q 324 156 346 133 q 279 197 303 178 q 238 217 256 217 q 200 164 200 217 l 200 97 l 118 97 l 118 182 q 225 292 118 292 q 303 273 267 292 q 361 231 340 254 q 406 190 382 208 q 449 171 429 171 q 485 224 485 171 l 485 289 l 567 289 l 567 204 q 534 121 567 147 q 458 94 501 94 z "},"≠":{"ha":671,"x_min":118,"x_max":553,"o":"m 553 500 l 553 415 l 403 415 l 353 278 l 553 278 l 553 193 l 324 193 l 272 51 l 190 51 l 242 193 l 118 193 l 118 278 l 271 278 l 321 415 l 118 415 l 118 500 l 351 500 l 400 636 l 482 636 l 433 500 l 553 500 z "},"≤":{"ha":740,"x_min":93,"x_max":647,"o":"m 93 521 l 647 628 l 647 544 l 163 451 l 647 358 l 647 276 l 93 382 l 93 521 m 647 97 l 93 97 l 93 183 l 647 183 l 647 97 z "},"≥":{"ha":740,"x_min":93,"x_max":647,"o":"m 93 544 l 93 628 l 647 521 l 647 382 l 93 276 l 93 358 l 578 451 l 93 544 m 647 97 l 93 97 l 93 183 l 647 183 l 647 97 z "},"■":{"ha":1064,"x_min":69,"x_max":994,"o":"m 69 0 l 69 924 l 994 924 l 994 0 l 69 0 z "},"▲":{"ha":1172,"x_min":69,"x_max":1103,"o":"m 69 0 l 586 924 l 1103 0 l 69 0 z "},"◊":{"ha":858,"x_min":111,"x_max":747,"o":"m 514 924 l 747 463 l 514 0 l 346 0 l 111 463 l 346 924 l 514 924 m 225 463 l 429 58 l 635 463 l 429 867 l 225 463 z "},"●":{"ha":1113,"x_min":69,"x_max":1043,"o":"m 558 -25 q 212 117 354 -25 q 69 464 69 260 q 212 807 69 665 q 558 949 354 949 q 901 807 760 949 q 1043 464 1043 665 q 901 117 1043 260 q 558 -25 760 -25 z "}}}
